<svg width="79" height="242" viewBox="0 0 79 242" fill="none" xmlns="http://www.w3.org/2000/svg">
<path d="M0.497365 40.108C0.78977 40.8089 1.4721 41.2663 2.22928 41.2663L17.7686 41.2663L17.7686 240.126C17.7686 241.16 18.6084 242 19.6431 242L59.6331 242C60.6678 242 61.5075 241.16 61.5075 240.126L61.5075 41.2662L77.1256 41.2662C77.8828 41.2662 78.5651 40.8087 78.8575 40.1115C79.1462 39.4105 78.9888 38.6045 78.4526 38.0684L41.0589 0.550907C40.7065 0.198581 40.2303 -0.000179716 39.7318 -0.000179673C39.2333 -0.000179629 38.7571 0.198551 38.4047 0.547184L0.902227 38.0647C0.366094 38.601 0.204961 39.4069 0.497365 40.108Z" fill="#FFCB3A"/>
</svg>
