<svg id="Layer_1" data-name="Layer 1" xmlns="http://www.w3.org/2000/svg" viewBox="0 0 1920 1080"><defs><style>.cls-1{fill:#4070f4;}</style></defs><title>Logo</title><path class="cls-1" d="M600.49,504v30H546.71V695.07H515.32V534H461.27V504Z"/><path class="cls-1" d="M615,635.39c2.18,10.1,7.09,18,15,23.74,7.64,5.74,17.2,8.47,28.66,8.47,15.56,0,27.3-5.74,35.21-16.93l24.3,14.2c-13.38,19.92-33.31,29.75-59.78,29.75-22.11,0-39.86-6.82-53.78-20.2q-20.48-20.48-20.47-51.59c0-20.2,6.82-37.12,20.2-51S634.88,551,656.17,551c19.93,0,36.31,7.09,49.14,21s19.38,31.12,19.38,51a71.2,71.2,0,0,1-1.09,12.29Zm80-24c-1.92-10.65-6.56-19.11-13.65-25.12-6.83-5.73-15.29-8.46-25.39-8.46-10.92,0-19.93,3-27.3,9s-12,14.19-13.92,24.57Z"/><path class="cls-1" d="M852.44,558.34h29.48V695.07H852.44V671.42c-11.19,15.56-27,23.2-47.77,23.2-18.83,0-34.66-6.82-48-20.74s-19.93-30.85-19.93-51,6.55-37.12,19.93-51,29.21-20.75,48-20.75c20.75,0,36.58,7.64,47.77,22.93Zm-12.28,95.88c8.19-8.46,12.28-19.11,12.28-31.39q0-18.84-12.28-31.12c-8.19-8.46-18.56-12.55-30.85-12.55s-22.65,4.09-30.84,12.55Q766.19,604,766.18,622.83c0,12.28,4.1,22.93,12.29,31.39,8.19,8.19,18.56,12.29,30.84,12.29S832,662.41,840.16,654.22Z"/><path class="cls-1" d="M1111.49,610.45v84.62H1082V612.36c0-9.28-2.46-16.65-7.1-21.84s-11.19-7.92-19.38-7.92c-19.92,0-29.75,12-29.75,36v76.43H996.3V612.36c0-19.93-8.46-29.76-25.66-29.76-9,0-16.38,3-21.84,9-5.73,6.28-8.46,15.29-8.46,27v76.43H910.86V558.58h29.48V575c8.73-13.37,21.84-19.93,39-19.93,17.47,0,30.29,7.1,38.76,21.57,9-14.47,22.93-21.57,41.76-21.57,15.56,0,27.84,4.92,37.4,15S1111.49,593.52,1111.49,610.45Z"/><path class="cls-1" d="M1206.22,614.91a59.22,59.22,0,0,1,15.56,7.65c10.64,7.37,16.1,17.74,15.83,30.57,0,13.1-5.19,23.47-15.29,30.84s-22.93,11.2-37.94,11.2q-41.76,0-55.69-31.94l25.39-14.74q7,19.65,30.3,19.65c15.56,0,23.2-5.18,23.2-15.28,0-7.37-8.73-13.38-25.93-17.47-6.55-1.64-12-3.28-16.1-4.65A58.61,58.61,0,0,1,1150,623.1c-10.65-7.37-16.11-17.2-15.84-29.75,0-12.56,4.64-22.66,14.2-30.3s21.56-11.47,35.76-11.47c23.47,0,40.4,9.56,50.5,28.39l-24.84,13.92c-4.64-10.37-13.11-15.56-25.66-15.56-13.38,0-19.93,4.92-19.93,14.47,0,6.83,8.46,12.83,25.66,17.75C1196.12,611.91,1201.58,613.55,1206.22,614.91Z"/><path class="cls-1" d="M1277.74,635.93c2.19,10.1,7.1,18,15,23.75,7.64,5.73,17.19,8.46,28.66,8.46,15.56,0,27.3-5.73,35.21-16.92l24.29,14.19c-13.37,19.93-33.3,29.76-59.78,29.76-22.11,0-39.85-6.83-53.77-20.2q-20.47-20.47-20.47-51.6c0-20.19,6.82-37.12,20.2-51s30.57-20.75,51.86-20.75c19.93,0,36.31,7.1,49.14,21s19.38,31.12,19.38,51a70.21,70.21,0,0,1-1.1,12.28Zm80-24c-1.91-10.65-6.55-19.11-13.65-25.11-6.82-5.73-15.28-8.47-25.38-8.47-10.92,0-19.93,3-27.3,9s-12,14.2-13.92,24.57Z"/><path class="cls-1" d="M1494.48,558.58h31.39l-52.41,140.86c-13.1,35.21-35.21,52.13-66.6,50.22V722.09c16.93.82,28.94-7.92,36.31-26.75l1.36-2.73-57.87-134h32.21l40.67,99.09Z"/><path class="cls-1" d="M1556.73,635.84c2.18,10.1,7.09,18,15,23.75,7.64,5.73,17.2,8.46,28.66,8.46,15.56,0,27.3-5.73,35.21-16.92l24.3,14.19c-13.38,19.93-33.3,29.76-59.78,29.76-22.11,0-39.86-6.83-53.78-20.21q-20.47-20.46-20.47-51.59c0-20.2,6.82-37.12,20.2-51s30.57-20.75,51.87-20.75c19.92,0,36.3,7.1,49.13,21s19.38,31.12,19.38,51a70.11,70.11,0,0,1-1.09,12.28Zm80-24c-1.91-10.65-6.56-19.11-13.65-25.11-6.83-5.73-15.29-8.47-25.39-8.47-10.92,0-19.93,3-27.3,9s-12,14.2-13.92,24.57Z"/><path class="cls-1" d="M1750,614.82a59.38,59.38,0,0,1,15.56,7.64c10.64,7.38,16.1,17.75,15.83,30.58,0,13.1-5.19,23.47-15.29,30.84s-22.93,11.2-37.94,11.2q-41.76,0-55.68-31.94l25.38-14.74q7,19.65,30.3,19.65c15.56,0,23.2-5.19,23.2-15.28,0-7.38-8.73-13.38-25.93-17.47-6.55-1.64-12-3.28-16.1-4.65a58.91,58.91,0,0,1-15.56-7.64c-10.65-7.37-16.11-17.2-15.83-29.75,0-12.56,4.64-22.66,14.19-30.3s21.56-11.47,35.76-11.47c23.47,0,40.4,9.56,50.5,28.39l-24.84,13.92c-4.64-10.37-13.1-15.56-25.66-15.56-13.38,0-19.93,4.92-19.93,14.47,0,6.83,8.46,12.83,25.66,17.75C1739.89,611.82,1745.35,613.46,1750,614.82Z"/><path class="cls-1" d="M553,440.84A222.83,222.83,0,0,0,473.44,361a220.33,220.33,0,0,0-40.61-18.59c-1.23-.47-2.46-.94-3.72-1.35a220.14,220.14,0,0,0-84.6-10.3l-2.78.22a220.72,220.72,0,0,0-61.57,14.2c-.79.31-1.59.61-2.38.93l-1.14.47a221.49,221.49,0,0,0-86.37,62.9q-3.12,3.6-5.83,7.24a221,221,0,0,0,8,279.27c.82,1,1.66,1.92,2.49,2.87.09.09.17.19.26.29a222.63,222.63,0,0,0,60.45,48.17A6.68,6.68,0,1,0,262,735.6h0a209.75,209.75,0,0,1-49.64-37.53l2.78-15.91h0l11.14-62.93c.17-1.37.31-2.71.48-4.09l64.68-28.2c23.11,14.5,47.85,29.53,71.84,43.63a6.4,6.4,0,0,0,3.77.88,6.48,6.48,0,0,0,3.74-1.51c22.16-18.67,45-38.51,66.08-57.37a6.56,6.56,0,0,0,2.16-5.34V567l0-.14-.33-1.37,0-.13-.05-.13c-10.58-26.07-21.91-52.43-32.88-76.59l37-60.07c21.1.08,69.35-.6,86.7.6a206.45,206.45,0,0,1,12.09,18.38A6.68,6.68,0,0,0,553,440.84ZM286.34,574.92l-64.79,28.26c-17.76-12.72-34.32-25.57-49.31-38.26,0,0,0,0-.05,0L153,546.8a207.26,207.26,0,0,1,19.41-82.51l16.64-4.36h0l8.44-2,0,0c19-5.15,39.49-9.77,61-13.77l46.59,53C298.66,521.82,292.2,548.51,286.34,574.92Zm108.18-93c-4.88.31-9.78.63-14.73,1-21.56,1.56-43.56,3.53-64.75,5.74l-45.15-51.3L299,353.48a209,209,0,0,1,88.4-7.85L401,368h0l1.41,2.28,3.76,6.16v0c8.6,14.15,17.12,29.3,25.43,45.28Z"/></svg>