<svg width="132" height="190" viewBox="0 0 132 190" fill="none" xmlns="http://www.w3.org/2000/svg">
<path d="M132 189.783L132 0L0.000396729 -5.76989e-06L0.000388433 189.783L132 189.783Z" fill="url(#paint0_radial)"/>
<g opacity="0.2">
<path opacity="0.6" d="M70.9375 189.783L70.9375 0L61.0903 -4.48563e-07L61.0903 189.783L70.9375 189.783Z" fill="#2C6D12"/>
<path opacity="0.6" d="M50.583 189.783L50.583 0L40.7358 -4.48593e-07L40.7358 189.783L50.583 189.783Z" fill="#2C6D12"/>
<path opacity="0.6" d="M30.2158 189.783L30.2158 0L20.3687 -4.48606e-07L20.3686 189.783L30.2158 189.783Z" fill="#2C6D12"/>
<path opacity="0.6" d="M9.84765 189.783L9.84766 0L0.000487328 -4.4859e-07L0.000479275 189.783L9.84765 189.783Z" fill="#2C6D12"/>
</g>
<g opacity="0.2">
<path opacity="0.6" d="M132 189.783L132 0L122.153 -4.33406e-07L122.153 189.783L132 189.783Z" fill="#2C6D12"/>
<path opacity="0.6" d="M111.633 189.783L111.633 0L101.786 -4.33396e-07L101.786 189.783L111.633 189.783Z" fill="#2C6D12"/>
<path opacity="0.6" d="M91.2783 189.783L91.2783 0L81.4311 -4.33413e-07L81.4311 189.783L91.2783 189.783Z" fill="#2C6D12"/>
</g>
<path d="M63.531 94.885C63.531 93.5267 64.6398 92.4189 65.9994 92.4189C67.359 92.4189 68.4678 93.5267 68.4678 94.885C68.4678 96.2434 67.359 97.3511 65.9994 97.3511C64.6398 97.3643 63.531 96.2565 63.531 94.885Z" fill="white"/>
<path fill-rule="evenodd" clip-rule="evenodd" d="M123.152 179.491L123.152 11.015C123.152 10.3169 122.586 9.75095 121.888 9.75095L10.4734 9.75095C9.77534 9.75095 9.20943 10.3169 9.20943 11.015L9.20943 179.491C9.20943 180.189 9.77535 180.755 10.4734 180.755L121.888 180.755C122.586 180.755 123.152 180.189 123.152 179.491ZM123.693 11.015C123.693 10.0177 122.885 9.20923 121.888 9.20923L10.4734 9.20922C9.47617 9.20922 8.66771 10.0177 8.66771 11.015L8.6677 179.491C8.6677 180.488 9.47617 181.296 10.4734 181.296L121.888 181.296C122.885 181.296 123.693 180.488 123.693 179.491L123.693 11.015Z" fill="white"/>
<path fill-rule="evenodd" clip-rule="evenodd" d="M80.8968 180.755L80.8968 174.073C80.8968 173.375 80.3308 172.809 79.6327 172.809L51.8243 172.809C51.1262 172.809 50.5603 173.375 50.5603 174.073L50.5603 180.755L80.8968 180.755ZM81.4385 174.073C81.4385 173.076 80.63 172.268 79.6327 172.268L51.8243 172.268C50.8271 172.268 50.0186 173.076 50.0186 174.073L50.0186 181.296L81.4385 181.296L81.4385 174.073Z" fill="white"/>
<path fill-rule="evenodd" clip-rule="evenodd" d="M51.1023 9.75106L51.1023 16.4323C51.1023 17.1304 51.6682 17.6963 52.3663 17.6963L80.1747 17.6963C80.8728 17.6963 81.4387 17.1304 81.4387 16.4323L81.4387 9.75106L51.1023 9.75106ZM50.5605 16.4323C50.5605 17.4296 51.369 18.238 52.3663 18.238L80.1747 18.238C81.172 18.238 81.9804 17.4296 81.9804 16.4323L81.9804 9.20934L50.5605 9.20934L50.5605 16.4323Z" fill="white"/>
<path fill-rule="evenodd" clip-rule="evenodd" d="M92.8147 180.755L92.8147 157.641C92.8147 156.943 92.2488 156.377 91.5507 156.377L40.4483 156.377C39.7502 156.377 39.1842 156.943 39.1842 157.641L39.1842 180.755L92.8147 180.755ZM93.3564 157.641C93.3564 156.644 92.548 155.835 91.5507 155.835L40.4483 155.835C39.451 155.835 38.6425 156.644 38.6425 157.641L38.6425 181.296L93.3564 181.296L93.3564 157.641Z" fill="white"/>
<path fill-rule="evenodd" clip-rule="evenodd" d="M39.1843 9.75095L39.1843 32.8644C39.1843 33.5625 39.7502 34.1284 40.4483 34.1284L91.5508 34.1284C92.2489 34.1284 92.8148 33.5625 92.8148 32.8644L92.8148 9.75095L39.1843 9.75095ZM38.6426 32.8644C38.6426 33.8617 39.451 34.6702 40.4483 34.6702L91.5508 34.6702C92.548 34.6702 93.3565 33.8617 93.3565 32.8644L93.3565 9.20923L38.6426 9.20923L38.6426 32.8644Z" fill="white"/>
<path fill-rule="evenodd" clip-rule="evenodd" d="M8.66763 94.8013L123.513 94.8013L123.513 95.343L8.66763 95.343L8.66763 94.8013Z" fill="white"/>
<path fill-rule="evenodd" clip-rule="evenodd" d="M53.269 94.8917C53.269 102.022 59.0495 107.803 66.18 107.803C73.3106 107.803 79.0911 102.022 79.0911 94.8917C79.0911 87.7612 73.3106 81.9807 66.18 81.9807C59.0495 81.9807 53.269 87.7612 53.269 94.8917ZM52.7273 94.8917C52.7273 102.321 58.7503 108.344 66.18 108.344C73.6098 108.344 79.6328 102.321 79.6328 94.8917C79.6328 87.462 73.6098 81.439 66.18 81.439C58.7503 81.439 52.7273 87.462 52.7273 94.8917Z" fill="white"/>
<path fill-rule="evenodd" clip-rule="evenodd" d="M123.212 11.2456C123.226 10.3802 122.521 9.6745 121.656 9.6864L118.193 9.73405C118.335 12.2508 120.47 14.2268 123.162 14.3497L123.212 11.2456ZM121.648 9.14473C122.819 9.12862 123.772 10.0834 123.753 11.2543L123.695 14.8975H123.429C120.254 14.8975 117.644 12.529 117.644 9.46699V9.19983L121.648 9.14473Z" fill="white"/>
<path fill-rule="evenodd" clip-rule="evenodd" d="M9.14867 179.26C9.13485 180.125 9.83898 180.831 10.7045 180.819L14.1676 180.772C14.0258 178.255 11.8908 176.279 9.19823 176.156L9.14867 179.26ZM10.7119 181.361C9.54097 181.377 8.58832 180.422 8.60701 179.251L8.66518 175.608L8.93175 175.608C12.1059 175.608 14.7168 177.977 14.7168 181.039L14.7168 181.306L10.7119 181.361Z" fill="white"/>
<path fill-rule="evenodd" clip-rule="evenodd" d="M123.212 179.26C123.226 180.125 122.521 180.831 121.656 180.819L118.193 180.772C118.335 178.255 120.47 176.279 123.162 176.156L123.212 179.26ZM121.648 181.361C122.819 181.377 123.772 180.422 123.753 179.251L123.695 175.608L123.429 175.608C120.254 175.608 117.644 177.977 117.644 181.039L117.644 181.306L121.648 181.361Z" fill="white"/>
<path fill-rule="evenodd" clip-rule="evenodd" d="M9.14867 11.2456C9.13485 10.3802 9.83898 9.6745 10.7045 9.6864L14.1676 9.73405C14.0258 12.2508 11.8908 14.2268 9.19823 14.3497L9.14867 11.2456ZM10.7119 9.14473C9.54097 9.12862 8.58832 10.0834 8.60701 11.2543L8.66518 14.8975H8.93175C12.1059 14.8975 14.7168 12.529 14.7168 9.46699V9.19983L10.7119 9.14473Z" fill="white"/>
<path fill-rule="evenodd" clip-rule="evenodd" d="M75.0625 156.469L56.7553 156.421L57.0119 156.008C58.8634 153.03 62.1504 151.05 65.8955 151.05C69.6622 151.05 72.9599 153.052 74.8077 156.055L75.0625 156.469ZM74.0773 155.924C72.2831 153.306 69.289 151.592 65.8955 151.592C62.5221 151.592 59.5389 153.287 57.7427 155.882L74.0773 155.924Z" fill="white"/>
<path fill-rule="evenodd" clip-rule="evenodd" d="M55.3115 34.2175L73.6187 34.2656L73.3621 34.6782C71.5107 37.6561 68.2236 39.636 64.4785 39.636C60.7118 39.636 57.4141 37.6344 55.5663 34.6316L55.3115 34.2175ZM56.2968 34.7618C58.091 37.3805 61.085 39.0943 64.4785 39.0943C67.8519 39.0943 70.8351 37.3997 72.6313 34.8047L56.2968 34.7618Z" fill="white"/>
<g filter="url(#filter0_d)">
<circle cx="41" cy="34.0601" r="5" fill="white"/>
</g>
<g filter="url(#filter1_d)">
<circle cx="39" cy="80.0601" r="5" fill="white"/>
</g>
<g filter="url(#filter2_d)">
<circle cx="30" cy="139.06" r="5" fill="white"/>
</g>
<g filter="url(#filter3_d)">
<circle cx="55" cy="139.06" r="5" fill="white"/>
</g>
<g filter="url(#filter4_d)">
<circle cx="80" cy="139.06" r="5" fill="white"/>
</g>
<g filter="url(#filter5_d)">
<circle cx="66" cy="173.06" r="5" fill="white"/>
</g>
<g filter="url(#filter6_d)">
<circle cx="105" cy="139.06" r="5" fill="white"/>
</g>
<g filter="url(#filter7_d)">
<circle cx="66" cy="35.0601" r="5" fill="white"/>
</g>
<g filter="url(#filter8_d)">
<circle cx="67" cy="80.0601" r="5" fill="white"/>
</g>
<g filter="url(#filter9_d)">
<circle cx="91" cy="34.0601" r="5" fill="white"/>
</g>
<g filter="url(#filter10_d)">
<circle cx="98" cy="80.0601" r="5" fill="white"/>
</g>
<defs>
<filter id="filter0_d" x="35" y="28.0601" width="14" height="14" filterUnits="userSpaceOnUse" color-interpolation-filters="sRGB">
<feFlood flood-opacity="0" result="BackgroundImageFix"/>
<feColorMatrix in="SourceAlpha" type="matrix" values="0 0 0 0 0 0 0 0 0 0 0 0 0 0 0 0 0 0 127 0"/>
<feOffset dx="1" dy="1"/>
<feGaussianBlur stdDeviation="1"/>
<feColorMatrix type="matrix" values="0 0 0 0 0 0 0 0 0 0 0 0 0 0 0 0 0 0 0.35 0"/>
<feBlend mode="normal" in2="BackgroundImageFix" result="effect1_dropShadow"/>
<feBlend mode="normal" in="SourceGraphic" in2="effect1_dropShadow" result="shape"/>
</filter>
<filter id="filter1_d" x="33" y="74.0601" width="14" height="14" filterUnits="userSpaceOnUse" color-interpolation-filters="sRGB">
<feFlood flood-opacity="0" result="BackgroundImageFix"/>
<feColorMatrix in="SourceAlpha" type="matrix" values="0 0 0 0 0 0 0 0 0 0 0 0 0 0 0 0 0 0 127 0"/>
<feOffset dx="1" dy="1"/>
<feGaussianBlur stdDeviation="1"/>
<feColorMatrix type="matrix" values="0 0 0 0 0 0 0 0 0 0 0 0 0 0 0 0 0 0 0.35 0"/>
<feBlend mode="normal" in2="BackgroundImageFix" result="effect1_dropShadow"/>
<feBlend mode="normal" in="SourceGraphic" in2="effect1_dropShadow" result="shape"/>
</filter>
<filter id="filter2_d" x="24" y="133.06" width="14" height="14" filterUnits="userSpaceOnUse" color-interpolation-filters="sRGB">
<feFlood flood-opacity="0" result="BackgroundImageFix"/>
<feColorMatrix in="SourceAlpha" type="matrix" values="0 0 0 0 0 0 0 0 0 0 0 0 0 0 0 0 0 0 127 0"/>
<feOffset dx="1" dy="1"/>
<feGaussianBlur stdDeviation="1"/>
<feColorMatrix type="matrix" values="0 0 0 0 0 0 0 0 0 0 0 0 0 0 0 0 0 0 0.35 0"/>
<feBlend mode="normal" in2="BackgroundImageFix" result="effect1_dropShadow"/>
<feBlend mode="normal" in="SourceGraphic" in2="effect1_dropShadow" result="shape"/>
</filter>
<filter id="filter3_d" x="49" y="133.06" width="14" height="14" filterUnits="userSpaceOnUse" color-interpolation-filters="sRGB">
<feFlood flood-opacity="0" result="BackgroundImageFix"/>
<feColorMatrix in="SourceAlpha" type="matrix" values="0 0 0 0 0 0 0 0 0 0 0 0 0 0 0 0 0 0 127 0"/>
<feOffset dx="1" dy="1"/>
<feGaussianBlur stdDeviation="1"/>
<feColorMatrix type="matrix" values="0 0 0 0 0 0 0 0 0 0 0 0 0 0 0 0 0 0 0.35 0"/>
<feBlend mode="normal" in2="BackgroundImageFix" result="effect1_dropShadow"/>
<feBlend mode="normal" in="SourceGraphic" in2="effect1_dropShadow" result="shape"/>
</filter>
<filter id="filter4_d" x="74" y="133.06" width="14" height="14" filterUnits="userSpaceOnUse" color-interpolation-filters="sRGB">
<feFlood flood-opacity="0" result="BackgroundImageFix"/>
<feColorMatrix in="SourceAlpha" type="matrix" values="0 0 0 0 0 0 0 0 0 0 0 0 0 0 0 0 0 0 127 0"/>
<feOffset dx="1" dy="1"/>
<feGaussianBlur stdDeviation="1"/>
<feColorMatrix type="matrix" values="0 0 0 0 0 0 0 0 0 0 0 0 0 0 0 0 0 0 0.35 0"/>
<feBlend mode="normal" in2="BackgroundImageFix" result="effect1_dropShadow"/>
<feBlend mode="normal" in="SourceGraphic" in2="effect1_dropShadow" result="shape"/>
</filter>
<filter id="filter5_d" x="60" y="167.06" width="14" height="14" filterUnits="userSpaceOnUse" color-interpolation-filters="sRGB">
<feFlood flood-opacity="0" result="BackgroundImageFix"/>
<feColorMatrix in="SourceAlpha" type="matrix" values="0 0 0 0 0 0 0 0 0 0 0 0 0 0 0 0 0 0 127 0"/>
<feOffset dx="1" dy="1"/>
<feGaussianBlur stdDeviation="1"/>
<feColorMatrix type="matrix" values="0 0 0 0 0 0 0 0 0 0 0 0 0 0 0 0 0 0 0.35 0"/>
<feBlend mode="normal" in2="BackgroundImageFix" result="effect1_dropShadow"/>
<feBlend mode="normal" in="SourceGraphic" in2="effect1_dropShadow" result="shape"/>
</filter>
<filter id="filter6_d" x="99" y="133.06" width="14" height="14" filterUnits="userSpaceOnUse" color-interpolation-filters="sRGB">
<feFlood flood-opacity="0" result="BackgroundImageFix"/>
<feColorMatrix in="SourceAlpha" type="matrix" values="0 0 0 0 0 0 0 0 0 0 0 0 0 0 0 0 0 0 127 0"/>
<feOffset dx="1" dy="1"/>
<feGaussianBlur stdDeviation="1"/>
<feColorMatrix type="matrix" values="0 0 0 0 0 0 0 0 0 0 0 0 0 0 0 0 0 0 0.35 0"/>
<feBlend mode="normal" in2="BackgroundImageFix" result="effect1_dropShadow"/>
<feBlend mode="normal" in="SourceGraphic" in2="effect1_dropShadow" result="shape"/>
</filter>
<filter id="filter7_d" x="60" y="29.0601" width="14" height="14" filterUnits="userSpaceOnUse" color-interpolation-filters="sRGB">
<feFlood flood-opacity="0" result="BackgroundImageFix"/>
<feColorMatrix in="SourceAlpha" type="matrix" values="0 0 0 0 0 0 0 0 0 0 0 0 0 0 0 0 0 0 127 0"/>
<feOffset dx="1" dy="1"/>
<feGaussianBlur stdDeviation="1"/>
<feColorMatrix type="matrix" values="0 0 0 0 0 0 0 0 0 0 0 0 0 0 0 0 0 0 0.35 0"/>
<feBlend mode="normal" in2="BackgroundImageFix" result="effect1_dropShadow"/>
<feBlend mode="normal" in="SourceGraphic" in2="effect1_dropShadow" result="shape"/>
</filter>
<filter id="filter8_d" x="61" y="74.0601" width="14" height="14" filterUnits="userSpaceOnUse" color-interpolation-filters="sRGB">
<feFlood flood-opacity="0" result="BackgroundImageFix"/>
<feColorMatrix in="SourceAlpha" type="matrix" values="0 0 0 0 0 0 0 0 0 0 0 0 0 0 0 0 0 0 127 0"/>
<feOffset dx="1" dy="1"/>
<feGaussianBlur stdDeviation="1"/>
<feColorMatrix type="matrix" values="0 0 0 0 0 0 0 0 0 0 0 0 0 0 0 0 0 0 0.35 0"/>
<feBlend mode="normal" in2="BackgroundImageFix" result="effect1_dropShadow"/>
<feBlend mode="normal" in="SourceGraphic" in2="effect1_dropShadow" result="shape"/>
</filter>
<filter id="filter9_d" x="85" y="28.0601" width="14" height="14" filterUnits="userSpaceOnUse" color-interpolation-filters="sRGB">
<feFlood flood-opacity="0" result="BackgroundImageFix"/>
<feColorMatrix in="SourceAlpha" type="matrix" values="0 0 0 0 0 0 0 0 0 0 0 0 0 0 0 0 0 0 127 0"/>
<feOffset dx="1" dy="1"/>
<feGaussianBlur stdDeviation="1"/>
<feColorMatrix type="matrix" values="0 0 0 0 0 0 0 0 0 0 0 0 0 0 0 0 0 0 0.35 0"/>
<feBlend mode="normal" in2="BackgroundImageFix" result="effect1_dropShadow"/>
<feBlend mode="normal" in="SourceGraphic" in2="effect1_dropShadow" result="shape"/>
</filter>
<filter id="filter10_d" x="92" y="74.0601" width="14" height="14" filterUnits="userSpaceOnUse" color-interpolation-filters="sRGB">
<feFlood flood-opacity="0" result="BackgroundImageFix"/>
<feColorMatrix in="SourceAlpha" type="matrix" values="0 0 0 0 0 0 0 0 0 0 0 0 0 0 0 0 0 0 127 0"/>
<feOffset dx="1" dy="1"/>
<feGaussianBlur stdDeviation="1"/>
<feColorMatrix type="matrix" values="0 0 0 0 0 0 0 0 0 0 0 0 0 0 0 0 0 0 0.35 0"/>
<feBlend mode="normal" in2="BackgroundImageFix" result="effect1_dropShadow"/>
<feBlend mode="normal" in="SourceGraphic" in2="effect1_dropShadow" result="shape"/>
</filter>
<radialGradient id="paint0_radial" cx="0" cy="0" r="1" gradientUnits="userSpaceOnUse" gradientTransform="translate(66.0002 94.8914) rotate(-180) scale(118.908 124.785)">
<stop offset="0.226947" stop-color="#B3D63A"/>
<stop offset="0.726244" stop-color="#5A9E28"/>
<stop offset="1" stop-color="#005700"/>
</radialGradient>
</defs>
</svg>
