<svg width="20" height="17" viewBox="0 0 20 17" fill="none" xmlns="http://www.w3.org/2000/svg">
<path d="M11.9531 0H8.04688C7.72328 0 7.46094 0.262344 7.46094 0.585938V16.2109C7.46094 16.5345 7.72328 16.7969 8.04688 16.7969H11.9531C12.2767 16.7969 12.5391 16.5345 12.5391 16.2109V0.585938C12.5391 0.262344 12.2767 0 11.9531 0ZM11.3672 15.625H8.63281V9.76562H11.3672V15.625ZM11.3672 8.59375H8.63281V1.17188H11.3672V8.59375Z" fill="#71788B"/>
<path d="M4.49219 7.03125H0.585938C0.262344 7.03125 0 7.29359 0 7.61719V16.2109C0 16.5345 0.262344 16.7969 0.585938 16.7969H4.49219C4.81578 16.7969 5.07812 16.5345 5.07812 16.2109V7.61719C5.07812 7.29359 4.81578 7.03125 4.49219 7.03125ZM3.90625 15.625H1.17188V13.6719H3.90625V15.625ZM3.90625 12.5H1.17188V8.20312H3.90625V12.5Z" fill="#71788B"/>
<path d="M19.4141 7.03125H15.5078C15.1842 7.03125 14.9219 7.29359 14.9219 7.61719V16.2109C14.9219 16.5345 15.1842 16.7969 15.5078 16.7969H19.4141C19.7377 16.7969 20 16.5345 20 16.2109V7.61719C20 7.29359 19.7377 7.03125 19.4141 7.03125ZM18.8281 15.625H16.0938V13.6719H18.8281V15.625ZM18.8281 12.5H16.0938V8.20312H18.8281V12.5Z" fill="#71788B"/>
</svg>
