<svg width="20" height="17" viewBox="0 0 20 17" fill="none" xmlns="http://www.w3.org/2000/svg">
<path fill-rule="evenodd" clip-rule="evenodd" d="M8.04688 0H11.9531C12.2767 0 12.5391 0.262344 12.5391 0.585938V16.2109C12.5391 16.5345 12.2767 16.7969 11.9531 16.7969H8.04688C7.72328 16.7969 7.46094 16.5345 7.46094 16.2109V0.585938C7.46094 0.262344 7.72328 0 8.04688 0ZM8.63281 8.59375H11.3672V1.17188H8.63281V8.59375ZM0.585938 7.03125H4.49219C4.81578 7.03125 5.07812 7.29359 5.07812 7.61719V16.2109C5.07812 16.5345 4.81578 16.7969 4.49219 16.7969H0.585938C0.262344 16.7969 0 16.5345 0 16.2109V7.61719C0 7.29359 0.262344 7.03125 0.585938 7.03125ZM1.17188 12.5H3.90625V8.20312H1.17188V12.5ZM19.4141 7.03125H15.5078C15.1842 7.03125 14.9219 7.29359 14.9219 7.61719V16.2109C14.9219 16.5345 15.1842 16.7969 15.5078 16.7969H19.4141C19.7377 16.7969 20 16.5345 20 16.2109V7.61719C20 7.29359 19.7377 7.03125 19.4141 7.03125ZM18.8281 12.5H16.0938V8.20312H18.8281V12.5Z" fill="#4070F4"/>
</svg>
