<svg width="15" height="15" viewBox="0 0 15 15" fill="none" xmlns="http://www.w3.org/2000/svg">
<path d="M14.5605 1.08261H12.6357C12.6426 0.869408 12.6465 0.654945 12.6465 0.439453C12.6465 0.196724 12.4497 0 12.2071 0H2.79305C2.55032 0 2.35359 0.196724 2.35359 0.439453C2.35359 0.654945 2.35737 0.869408 2.36435 1.08261H0.439453C0.196724 1.08261 0 1.27934 0 1.52206C0 3.49113 0.514641 5.34885 1.44905 6.75316C2.3727 8.14144 3.60306 8.93772 4.93206 9.0152C5.23338 9.34307 5.55199 9.6104 5.88375 9.81434V11.7675H5.14652C4.25526 11.7675 3.53027 12.4926 3.53027 13.3838V14.121H3.49903C3.2563 14.121 3.05958 14.3178 3.05958 14.5604C3.05958 14.8032 3.2563 14.9999 3.49903 14.9999H11.501C11.7437 14.9999 11.9404 14.8032 11.9404 14.5604C11.9404 14.3178 11.7437 14.121 11.501 14.121H11.4697V13.3838C11.4697 12.4926 10.7446 11.7675 9.85348 11.7675H9.11625V9.81434C9.44801 9.6104 9.7665 9.34307 10.0678 9.0152C11.3969 8.93772 12.6272 8.14144 13.5509 6.75316C14.4854 5.34885 15 3.49113 15 1.52206C15 1.27934 14.8032 1.08261 14.5605 1.08261ZM2.18079 6.26633C1.41003 5.10796 0.957184 3.5931 0.888176 1.96152H2.41344C2.57195 3.96721 3.04276 5.82104 3.77861 7.29275C3.8958 7.52712 4.01836 7.74845 4.14551 7.95708C3.41457 7.68105 2.73811 7.10403 2.18079 6.26633ZM12.8192 6.26633C12.2619 7.10403 11.5854 7.68105 10.8545 7.95708C10.9818 7.74845 11.1042 7.52712 11.2214 7.29275C11.9572 5.82104 12.4279 3.96721 12.5866 1.96152H14.1118C14.0428 3.5931 13.59 5.10796 12.8192 6.26633Z" fill="#4070F4"/>
</svg>
