<svg width="15" height="15" viewBox="0 0 15 15" fill="none" xmlns="http://www.w3.org/2000/svg">
<path d="M14.5605 1.08261H12.6357C12.6426 0.869408 12.6465 0.654945 12.6465 0.439453C12.6465 0.196724 12.4497 0 12.2071 0H2.79293C2.55032 0 2.35348 0.196724 2.35348 0.439453C2.35348 0.654945 2.35737 0.869408 2.36435 1.08261H0.439453C0.196724 1.08261 0 1.27934 0 1.52206C0 3.49113 0.514641 5.34885 1.44905 6.75316C2.3727 8.14144 3.60306 8.93772 4.93217 9.0152C5.2335 9.34307 5.55199 9.6104 5.88375 9.81434V11.7675H5.14652C4.25526 11.7675 3.53027 12.4926 3.53027 13.3838V14.121H3.49903C3.2563 14.121 3.05958 14.3178 3.05958 14.5604C3.05958 14.8032 3.2563 14.9999 3.49903 14.9999H11.501C11.7437 14.9999 11.9404 14.8032 11.9404 14.5604C11.9404 14.3178 11.7437 14.121 11.501 14.121H11.4697V13.3838C11.4697 12.4926 10.7447 11.7675 9.85348 11.7675H9.11625V9.81434C9.44801 9.61052 9.76662 9.34307 10.0679 9.0152C11.3969 8.93772 12.6273 8.14144 13.5511 6.75316C14.4855 5.34885 15 3.49113 15 1.52206C15 1.27934 14.8033 1.08261 14.5605 1.08261ZM2.18079 6.26633C1.41003 5.10807 0.957184 3.5931 0.888176 1.96152H2.41344C2.57195 3.96721 3.04276 5.82115 3.77861 7.29275C3.8958 7.52712 4.01836 7.74857 4.14551 7.95708C3.41457 7.68105 2.73811 7.10403 2.18079 6.26633ZM10.5908 13.3838V14.1211H4.40918V13.3838C4.40918 12.9773 4.73991 12.6464 5.14652 12.6464H9.85348C10.2601 12.6464 10.5908 12.9773 10.5908 13.3838ZM8.23734 11.7675H6.76266V10.1962C7.00424 10.2599 7.2504 10.2929 7.5 10.2929C7.7496 10.2929 7.99576 10.2599 8.23734 10.1962V11.7675ZM8.50948 9.1507C8.48969 9.15882 8.47069 9.16866 8.45249 9.17953C8.1419 9.33403 7.82272 9.41402 7.5 9.41402C7.17739 9.41402 6.85833 9.33403 6.54785 9.17976C6.52943 9.16866 6.51031 9.15882 6.49029 9.15047C6.14571 8.96828 5.81234 8.69316 5.49706 8.33164C5.48046 8.30795 5.46181 8.28609 5.44109 8.26618C5.1281 7.89459 4.83364 7.43752 4.5647 6.89964C3.7571 5.28454 3.29063 3.16086 3.23753 0.878906H11.7625C11.7093 3.16086 11.2428 5.28465 10.4353 6.89964C10.1664 7.43752 9.8719 7.89459 9.55902 8.26618C9.53819 8.28609 9.51931 8.30807 9.50283 8.33176C9.18755 8.69339 8.85406 8.96839 8.50948 9.1507ZM12.8192 6.26633C12.2619 7.10403 11.5854 7.68105 10.8545 7.95708C10.9816 7.74857 11.1042 7.52712 11.2214 7.29275C11.9572 5.82115 12.4279 3.96721 12.5866 1.96152H14.1118C14.0428 3.5931 13.59 5.10807 12.8192 6.26633Z" fill="#71788B"/>
</svg>
