<svg width="28" height="28" viewBox="0 0 28 28" fill="none" xmlns="http://www.w3.org/2000/svg">
<circle cx="14" cy="14" r="13.5" fill="white" stroke="#4070F4"/>
<path d="M10.756 23.9968C10.6843 23.9739 10.6126 23.9477 10.5378 23.928C9.75855 23.7055 9.20685 22.9627 9.20062 22.1184C9.1975 21.8501 9.20062 21.5818 9.20062 21.2545C9.0323 21.4345 8.90139 21.5818 8.76736 21.7225C8.53359 21.9646 8.22813 21.981 8.0193 21.7617C7.81358 21.5458 7.83228 21.2251 8.06605 20.9764C8.47437 20.5444 8.88269 20.1157 9.29413 19.6871C9.5653 19.4056 9.83336 19.4056 10.1014 19.6838C10.5128 20.1125 10.9212 20.5411 11.3295 20.9698C11.5633 21.2153 11.582 21.5359 11.3794 21.7552C11.1705 21.9777 10.8588 21.9614 10.6188 21.7094C10.4879 21.5719 10.3601 21.4312 10.2105 21.2709C10.2105 21.6112 10.1793 21.9155 10.2167 22.2133C10.2728 22.678 10.6157 22.9529 11.0739 22.9529C12.4391 22.9529 13.8075 22.9529 15.1727 22.9529C15.7462 22.9529 16.3197 22.9529 16.8932 22.9529C17.4543 22.9529 17.8002 22.5896 17.8034 22.0039C17.8034 21.5883 17.8034 21.1694 17.8034 20.7539C17.8034 20.4037 18.0028 20.1714 18.3021 20.1746C18.5951 20.1746 18.7946 20.407 18.7946 20.744C18.7946 21.1891 18.7977 21.6341 18.7946 22.0792C18.7914 23.0151 18.1899 23.7775 17.314 23.9608C17.2891 23.9673 17.2641 23.9837 17.2423 23.9935C15.0792 23.9968 12.9191 23.9968 10.756 23.9968Z" fill="#4070F4"/>
<path d="M7.0747 12.0105C7.61393 13.1624 8.46485 13.8496 9.69916 13.8496C10.9335 13.8496 11.7813 13.1591 12.3267 12.0007C12.7288 12.4949 12.9906 13.0348 13.0997 13.65C13.1434 13.8987 13.1652 14.1539 13.1683 14.4059C13.1745 15.5349 13.1714 16.6638 13.1714 17.7895C13.1714 18.1659 12.9782 18.372 12.6228 18.372C10.6716 18.372 8.72044 18.372 6.76924 18.372C6.42326 18.372 6.22689 18.1659 6.22689 17.8026C6.22689 16.6115 6.21442 15.4171 6.23001 14.2259C6.24247 13.4144 6.52612 12.6945 7.01547 12.0662C7.02794 12.0498 7.04664 12.0367 7.0747 12.0105Z" fill="#4070F4"/>
<path d="M15.6777 12.0142C16.2231 13.1694 17.0772 13.8533 18.3115 13.85C19.5396 13.8435 20.3842 13.1563 20.9235 12.0044C21.2632 12.4069 21.5001 12.8487 21.6248 13.3461C21.7058 13.6668 21.7588 14.0038 21.7619 14.3343C21.7775 15.4927 21.7682 16.6479 21.7682 17.8063C21.7682 18.1695 21.5687 18.3757 21.2258 18.3757C19.2746 18.3757 17.3234 18.3757 15.3722 18.3757C15.0231 18.3757 14.8236 18.1728 14.8236 17.8128C14.8205 16.6217 14.8205 15.4306 14.8236 14.2361C14.8299 13.4704 15.207 12.4887 15.6777 12.0142Z" fill="#4070F4"/>
<path d="M11.8466 8.47682C11.8466 9.73668 10.8866 10.7348 9.67721 10.7348C8.50212 10.7348 7.54834 9.71705 7.54834 8.47028C7.54834 7.22024 8.51147 6.22217 9.71149 6.22217C10.8928 6.22544 11.8466 7.23333 11.8466 8.47682Z" fill="#4070F4"/>
<path d="M18.3018 6.22217C19.4924 6.22217 20.4493 7.23005 20.4493 8.48664C20.4493 9.73341 19.4831 10.738 18.2862 10.738C17.1017 10.738 16.1448 9.72032 16.148 8.46373C16.1511 7.22351 17.1142 6.22217 18.3018 6.22217Z" fill="#4070F4"/>
<path d="M11.5538 11.3169C11.3013 11.8602 11.0208 12.3772 10.4566 12.6455C9.63374 13.0349 8.66125 12.7437 8.17501 11.9485C8.05345 11.7489 7.95059 11.5395 7.83838 11.33C7.90072 11.2286 7.95682 11.222 8.05656 11.281C9.15061 11.942 10.2478 11.9452 11.3418 11.2777C11.4353 11.222 11.4914 11.2286 11.5538 11.3169Z" fill="#4070F4"/>
<path d="M16.4351 11.3266C16.513 11.2252 16.5722 11.2285 16.6595 11.2808C17.7473 11.9386 18.8413 11.9418 19.9323 11.2841C20.0164 11.2317 20.0788 11.2186 20.1442 11.3004C19.8107 12.1643 19.2465 12.8515 18.2024 12.809C17.6164 12.7861 17.1488 12.4981 16.8122 11.9975C16.6688 11.788 16.5597 11.5524 16.4351 11.3266Z" fill="#4070F4"/>
</svg>
