<svg width="20" height="13" viewBox="0 0 20 13" fill="none" xmlns="http://www.w3.org/2000/svg">
<path d="M9.41406 3.57461V0H0.585938C0.2625 0 0 0.2625 0 0.585938V3.51562H2.92969C3.25312 3.51562 3.51562 3.77813 3.51562 4.10156V8.78906C3.51562 9.1125 3.25312 9.375 2.92969 9.375H0V12.3047C0 12.6281 0.2625 12.8906 0.585938 12.8906H9.41406V9.31602C8.07852 9.04414 7.07031 7.86055 7.07031 6.44531C7.07031 5.03008 8.07852 3.84648 9.41406 3.57461ZM0 4.6875V8.20312H2.34375V4.6875H0ZM10.5859 4.78828V8.10234C11.268 7.86094 11.7578 7.20898 11.7578 6.44531C11.7578 5.68164 11.268 5.02969 10.5859 4.78828ZM8.24219 6.44531C8.24219 7.20898 8.73203 7.86094 9.41406 8.10234V4.78828C8.73203 5.02969 8.24219 5.68164 8.24219 6.44531ZM17.0703 3.51562H20V0.585938C20 0.2625 19.7375 0 19.4141 0H10.5859V3.57461C11.9215 3.84648 12.9297 5.03008 12.9297 6.44531C12.9297 7.86055 11.9215 9.04414 10.5859 9.31602V12.8906H19.4141C19.7375 12.8906 20 12.6281 20 12.3047V9.375H17.0703C16.7469 9.375 16.4844 9.1125 16.4844 8.78906V4.10156C16.4844 3.77813 16.7469 3.51562 17.0703 3.51562ZM17.6562 4.6875V8.20312H20V4.6875H17.6562Z" fill="#4070F4"/>
</svg>
