<svg width="20" height="13" viewBox="0 0 20 13" fill="none" xmlns="http://www.w3.org/2000/svg">
<path d="M0.585938 12.8906H19.4141C19.7377 12.8906 20 12.6283 20 12.3047V0.585938C20 0.262344 19.7377 0 19.4141 0H0.585938C0.262344 0 0 0.262344 0 0.585938V12.3047C0 12.6283 0.262344 12.8906 0.585938 12.8906ZM1.17188 4.6875H2.34375V8.20312H1.17188V4.6875ZM10.5859 4.78828C11.2679 5.03016 11.7578 5.68145 11.7578 6.44531C11.7578 7.20918 11.2679 7.86047 10.5859 8.10234V4.78828ZM9.41406 8.10234C8.73207 7.86047 8.24219 7.20918 8.24219 6.44531C8.24219 5.68145 8.73207 5.03016 9.41406 4.78828V8.10234ZM18.8281 8.20312H17.6562V4.6875H18.8281V8.20312ZM18.8281 3.51562H17.0703C16.7467 3.51562 16.4844 3.77797 16.4844 4.10156V8.78906C16.4844 9.11266 16.7467 9.375 17.0703 9.375H18.8281V11.7188H10.5859V9.31605C11.9216 9.04387 12.9297 7.86016 12.9297 6.44531C12.9297 5.03047 11.9216 3.8468 10.5859 3.57457V1.17188H18.8281V3.51562ZM9.41406 1.17188V3.57457C8.07844 3.84676 7.07031 5.03047 7.07031 6.44531C7.07031 7.86016 8.07844 9.04383 9.41406 9.31605V11.7188H1.17188V9.375H2.92969C3.25328 9.375 3.51562 9.11266 3.51562 8.78906V4.10156C3.51562 3.77797 3.25328 3.51562 2.92969 3.51562H1.17188V1.17188H9.41406Z" fill="#71788B"/>
</svg>
