<svg width="30" height="26" viewBox="0 0 30 26" fill="none" xmlns="http://www.w3.org/2000/svg">
<path d="M10.5262 5.35886C10.5598 4.80186 10.5444 4.23716 10.6355 3.69068C10.997 1.52435 12.9412 -0.0625623 15.1097 0.001895C17.3629 0.0691548 19.2195 1.70721 19.4479 3.92258C19.5719 5.12275 19.6469 6.34464 19.3134 7.53079C18.7333 9.59413 16.6279 10.9954 14.5618 10.7221C12.2623 10.4181 10.6012 8.61395 10.5605 6.37406C10.5542 6.03636 10.5262 5.69656 10.5262 5.35886C10.515 5.35816 10.5374 5.35956 10.5262 5.35886ZM17.7342 5.37497C17.7244 5.37427 17.7447 5.37567 17.7342 5.37497C17.7342 5.04918 17.7104 4.72129 17.702 4.3962C17.6669 3.00897 16.5578 1.86695 15.1832 1.79829C13.7554 1.72683 12.5019 2.74694 12.3807 4.15449C12.3121 4.9504 12.3156 5.76102 12.3758 6.55833C12.4739 7.86008 13.5536 8.86828 14.8343 8.93834C16.2103 9.01401 17.3769 8.15855 17.634 6.83297C17.7265 6.35795 17.7048 5.86121 17.7342 5.37497Z" fill="white"/>
<path d="M1.81183 19.7624C3.2404 19.7624 4.61783 19.7624 6.02748 19.7624C6.02748 20.36 6.02748 20.9331 6.02748 21.5384C4.03421 21.5384 2.03603 21.5384 0.0350513 21.5384C0.0210388 21.4985 2.01099e-05 21.4677 2.01099e-05 21.4362C-0.00138114 19.6692 0.0693818 17.912 0.547207 16.1934C1.12242 14.1245 2.47672 12.9635 4.59681 12.74C5.56157 12.6384 6.53753 12.651 7.61649 12.6076C7.37688 13.1219 7.16179 13.5275 6.99784 13.9521C6.86122 14.3073 6.68677 14.4523 6.26849 14.4383C5.7073 14.4187 5.13278 14.4916 4.57929 14.6016C3.54657 14.8069 2.85226 15.4493 2.44589 16.4141C2.0024 17.4699 1.90151 18.5874 1.81183 19.7624Z" fill="white"/>
<path d="M22.4082 12.6531C23.6791 12.6181 24.8814 12.5754 26.0753 12.8388C27.6468 13.1863 28.7054 14.1153 29.2547 15.6133C29.9504 17.512 29.9854 19.4968 30.0002 21.5272C27.9747 21.5272 25.9772 21.5272 23.9566 21.5272C23.9566 20.9359 23.9566 20.3726 23.9566 19.7715C25.3473 19.7715 26.7338 19.7715 28.1855 19.7715C28.1386 19.2978 28.1239 18.8607 28.0461 18.4354C27.9361 17.8321 27.8247 17.2233 27.6349 16.6432C27.1942 15.2931 26.2028 14.6058 24.8155 14.4664C24.3657 14.4215 23.911 14.4299 23.4605 14.3956C23.354 14.3872 23.1992 14.3318 23.1586 14.2513C22.9035 13.7461 22.6744 13.2284 22.4082 12.6531Z" fill="white"/>
<path d="M23.0195 21.5336C23.0097 19.5074 22.9319 17.5281 22.2874 15.6182C21.6295 13.6691 20.2822 12.4682 18.2819 12.045C16.0974 11.5833 13.896 11.5861 11.7122 12.0443C9.80086 12.4451 8.45636 13.5647 7.77676 15.4199C7.05652 17.3838 6.98506 19.4345 6.97314 21.5329C7.95822 21.5329 8.94049 21.5329 9.92207 21.5329C9.99003 21.9154 10.0986 22.2839 10.2465 22.6328C10.6388 23.5598 11.2918 24.3459 12.115 24.9022C12.9375 25.4585 13.9345 25.7842 15.0002 25.7835C15.7099 25.7835 16.3909 25.6392 17.0089 25.3779C17.9358 24.9855 18.7219 24.3326 19.2782 23.5093C19.6726 22.9257 19.9508 22.2545 20.079 21.5329C21.0578 21.5336 22.0379 21.5336 23.0195 21.5336ZM18.2041 21.9785C17.9407 22.6013 17.4986 23.1345 16.943 23.5093C16.3867 23.8842 15.7225 24.1027 14.9988 24.1027C14.5161 24.1027 14.0606 24.0054 13.6452 23.8295C13.0223 23.5661 12.4891 23.124 12.1143 22.5684C11.7395 22.0121 11.5209 21.3479 11.5209 20.6242C11.5209 20.1414 11.6183 19.686 11.7941 19.2706C12.0576 18.6477 12.4997 18.1145 13.0553 17.7397C13.6115 17.3649 14.2757 17.1463 14.9988 17.1463C15.4815 17.1463 15.9369 17.2437 16.3524 17.4195C16.9752 17.6829 17.5084 18.125 17.8832 18.6806C18.2581 19.2369 18.4767 19.9011 18.4767 20.6249C18.4767 21.1076 18.3793 21.5623 18.2041 21.9785ZM17.8839 16.3469C17.0614 15.7906 16.0644 15.4648 14.9988 15.4655C14.289 15.4655 13.608 15.6098 12.9901 15.8711C12.0632 16.2635 11.2771 16.9165 10.7208 17.7397C10.3221 18.3296 10.0426 19.0092 9.91576 19.74C9.54303 19.74 9.171 19.74 8.79827 19.74C8.92718 18.2147 9.06871 16.7161 9.92487 15.4038C10.5008 14.521 11.3492 14.011 12.3553 13.7833C14.0298 13.4042 15.7197 13.407 17.4019 13.7293C19.1304 14.0607 20.2436 15.1082 20.6969 16.7946C20.9513 17.7411 21.0795 18.7213 21.275 19.74C20.8756 19.74 20.4777 19.74 20.0804 19.74C20.0124 19.349 19.9024 18.9721 19.7518 18.6162C19.3602 17.6892 18.7072 16.9031 17.8839 16.3469Z" fill="white"/>
<path d="M15.364 17.6423C15.364 18.4494 15.364 19.2572 15.364 20.0861C15.8572 20.0861 16.3392 20.0861 16.8787 20.0861C16.0282 21.2771 15.2077 22.4269 14.3509 23.6263C14.3509 22.7561 14.3509 21.9462 14.3509 21.1118C13.8443 21.1118 13.3567 21.1118 12.8242 21.1118C13.6727 19.9235 14.4945 18.7731 15.3163 17.6227C15.3324 17.6297 15.3479 17.636 15.364 17.6423Z" fill="white"/>
<path d="M27.5653 5.29641C27.2843 4.63222 26.817 4.07032 26.2278 3.67167C25.6393 3.27371 24.9239 3.03971 24.1617 3.04041C23.6537 3.04041 23.1661 3.1441 22.7233 3.33117C22.0591 3.61212 21.4972 4.07943 21.0985 4.66865C20.7006 5.25718 20.4666 5.97251 20.4673 6.73479V7.72407C20.4673 8.23202 20.571 8.71966 20.758 9.16245C21.039 9.82664 21.5063 10.3885 22.0955 10.7872C22.6841 11.1851 23.3994 11.4192 24.1617 11.4185C24.6696 11.4185 25.1573 11.3148 25.6 11.1277C26.2642 10.8467 26.8261 10.3794 27.2248 9.79021C27.6227 9.20169 27.8568 8.48635 27.8561 7.72407V6.73479C27.8561 6.22684 27.7531 5.73921 27.5653 5.29641ZM26.2446 7.72477C26.2446 8.01483 26.1865 8.28667 26.0814 8.53539C25.9237 8.90812 25.6589 9.22761 25.3261 9.45251C24.9926 9.67741 24.5961 9.80772 24.1624 9.80772C23.8723 9.80772 23.6005 9.74957 23.3518 9.64448C22.979 9.48684 22.6595 9.222 22.4346 8.88921C22.2097 8.55571 22.0794 8.15916 22.0794 7.72547V6.73479C22.0794 6.44473 22.1376 6.17289 22.2427 5.92417C22.4003 5.55144 22.6651 5.23196 22.9979 5.00706C23.3314 4.78216 23.728 4.65184 24.1617 4.65184C24.4517 4.65184 24.7236 4.70999 24.9723 4.81509C25.345 4.97273 25.6645 5.23756 25.8894 5.57036C26.1143 5.90385 26.2446 6.30041 26.2446 6.73409V7.72477Z" fill="white"/>
<path d="M9.51403 5.29641C9.23308 4.63222 8.76576 4.07032 8.17654 3.67167C7.58802 3.27371 6.87268 3.03971 6.1104 3.04041C5.60245 3.04041 5.11482 3.1441 4.67202 3.33117C4.00783 3.61212 3.44593 4.07943 3.04728 4.66865C2.64932 5.25718 2.41532 5.97251 2.41602 6.73479V7.72407C2.41602 8.23202 2.51971 8.71966 2.70678 9.16245C2.98773 9.82664 3.45504 10.3885 4.04427 10.7872C4.63279 11.1851 5.34812 11.4192 6.1104 11.4185C6.61835 11.4185 7.10599 11.3148 7.54878 11.1277C8.21297 10.8467 8.77487 10.3794 9.17353 9.79021C9.57148 9.20169 9.80549 8.48635 9.80479 7.72407V6.73479C9.80479 6.22684 9.7018 5.73921 9.51403 5.29641ZM8.19335 7.72477C8.19335 8.01483 8.1352 8.28667 8.03011 8.53539C7.87247 8.90812 7.60763 9.22761 7.27484 9.45251C6.94134 9.67741 6.54479 9.80772 6.1111 9.80772C5.82105 9.80772 5.5492 9.74957 5.30048 9.64448C4.92775 9.48684 4.60827 9.222 4.38337 8.88921C4.15847 8.55571 4.02815 8.15916 4.02815 7.72547V6.73479C4.02815 6.44473 4.0863 6.17289 4.1914 5.92417C4.34904 5.55144 4.61387 5.23196 4.94667 5.00706C5.28016 4.78216 5.67672 4.65184 6.1104 4.65184C6.40046 4.65184 6.6723 4.70999 6.92102 4.81509C7.29375 4.97273 7.61324 5.23756 7.83814 5.57036C8.06304 5.90385 8.19335 6.30041 8.19335 6.73409V7.72477Z" fill="white"/>
</svg>
