<svg width="30" height="25" viewBox="0 0 30 25" fill="none" xmlns="http://www.w3.org/2000/svg">
<path d="M9.83708 20.6247C9.83708 19.5591 10.1622 18.5621 10.7185 17.7396C11.2748 16.9163 12.0609 16.2634 12.9878 15.871C13.6057 15.6097 14.286 15.4653 14.9965 15.4653C16.0621 15.4653 17.0591 15.7904 17.8816 16.3467C18.7049 16.903 19.3578 17.6891 19.7502 18.616C20.0115 19.234 20.1558 19.9143 20.1558 20.6247C20.1558 20.9344 20.1278 21.2378 20.0753 21.5334C21.0568 21.5334 22.0377 21.5334 23.0207 21.5334C23.0109 19.5072 22.9331 17.528 22.2885 15.6181C21.6307 13.6689 20.2834 12.4681 18.2831 12.0449C16.0985 11.5832 13.8972 11.586 11.7133 12.0442C9.80205 12.445 8.45755 13.5646 7.77725 15.4198C7.05701 17.3836 6.98554 19.4344 6.97363 21.5327C7.95731 21.5327 8.93888 21.5327 9.91975 21.5327C9.8658 21.2378 9.83708 20.9344 9.83708 20.6247Z" fill="white"/>
<path d="M9.51451 5.29651C9.23356 4.63232 8.76625 4.07042 8.17702 3.67177C7.5885 3.27381 6.87317 3.03981 6.11089 3.04051C5.60294 3.04051 5.1153 3.1442 4.67251 3.33126C4.00832 3.61221 3.44642 4.07953 3.04777 4.66875C2.64981 5.25728 2.4158 5.97261 2.41651 6.73489V7.72417C2.41651 8.23212 2.5202 8.71975 2.70726 9.16255C2.98821 9.82674 3.45553 10.3886 4.04475 10.7873C4.63328 11.1852 5.34861 11.4193 6.11089 11.4186C6.61884 11.4186 7.10647 11.3149 7.54927 11.1278C8.21346 10.8468 8.77536 10.3795 9.17401 9.7903C9.57196 9.20178 9.80597 8.48645 9.80527 7.72417V6.73489C9.80527 6.22694 9.70228 5.7393 9.51451 5.29651Z" fill="white"/>
<path d="M27.5658 5.29651C27.2848 4.63232 26.8175 4.07042 26.2283 3.67177C25.6398 3.27381 24.9244 3.03981 24.1622 3.04051C23.6542 3.04051 23.1666 3.1442 22.7238 3.33126C22.0596 3.61221 21.4977 4.07953 21.099 4.66875C20.7011 5.25728 20.4671 5.97261 20.4678 6.73489V7.72417C20.4678 8.23212 20.5715 8.71975 20.7585 9.16255C21.0395 9.82674 21.5068 10.3886 22.096 10.7873C22.6845 11.1852 23.3999 11.4193 24.1622 11.4186C24.6701 11.4186 25.1577 11.3149 25.6005 11.1278C26.2647 10.8468 26.8266 10.3795 27.2253 9.7903C27.6232 9.20178 27.8572 8.48645 27.8565 7.72417V6.73489C27.8565 6.22694 27.7535 5.7393 27.5658 5.29651Z" fill="white"/>
<path d="M19.4481 3.92258C19.2197 1.70721 17.363 0.0684541 15.1098 0.001895C12.9421 -0.0625623 10.9979 1.52435 10.6357 3.69067C10.5446 4.23786 10.56 4.80256 10.5264 5.35886C10.5264 5.69656 10.5544 6.03636 10.5607 6.37406C10.6013 8.61395 12.2625 10.418 14.562 10.7221C16.6281 10.9954 18.7335 9.59482 19.3136 7.53079C19.6471 6.34463 19.5721 5.12205 19.4481 3.92258Z" fill="white"/>
<path d="M30 21.5279C29.986 19.4974 29.9503 17.5119 29.2546 15.6139C28.7053 14.1153 27.6466 13.1862 26.0751 12.8394C24.882 12.576 23.679 12.6187 22.4081 12.6538C22.4116 12.6608 22.4144 12.6678 22.4179 12.6748C22.3787 12.6615 22.3569 12.6538 22.3569 12.6538C22.516 12.9999 23.9186 16.4441 23.9565 20.1623C23.9565 20.2548 23.9565 20.3466 23.9565 20.4384C23.9537 20.8006 23.9375 21.1649 23.9046 21.5286L23.9565 21.5194C23.9565 21.5222 23.9565 21.5257 23.9565 21.5286C25.977 21.5279 27.9745 21.5279 30 21.5279Z" fill="white"/>
<path d="M7.59127 12.6621C7.59967 12.6439 7.60808 12.6264 7.61649 12.6082C6.53753 12.6516 5.56086 12.639 4.59681 12.7406C2.47602 12.9634 1.12242 14.125 0.547206 16.1933C0.0693817 17.9119 -0.00138114 19.6691 2.01099e-05 21.4353C2.01099e-05 21.4669 0.0210388 21.4984 0.0350512 21.5376C2.03603 21.5376 4.0342 21.5376 6.02748 21.5376C6.02748 21.532 6.02748 21.5264 6.02748 21.5201L6.06881 21.5278C6.0492 21.3092 6.03588 21.0906 6.02748 20.8727C6.02748 20.5028 6.02748 20.1371 6.02748 19.7623H6.02678C6.15429 16.2003 7.46375 12.9865 7.61719 12.6537C7.61719 12.653 7.60738 12.6565 7.59127 12.6621Z" fill="white"/>
<path d="M14.9969 17.1504C13.0765 17.1504 11.519 18.7071 11.519 20.6282C11.519 22.5493 13.0758 24.1061 14.9969 24.1061C16.9173 24.1061 18.4748 22.5493 18.4748 20.6282C18.4748 18.7071 16.9173 17.1504 14.9969 17.1504ZM14.3524 23.6262C14.3524 22.756 14.3524 21.9461 14.3524 21.1117C13.8458 21.1117 13.3582 21.1117 12.8257 21.1117C13.6742 19.9234 14.496 18.773 15.3178 17.6226C15.3332 17.6289 15.3486 17.6352 15.3648 17.6422C15.3648 18.4493 15.3648 19.2571 15.3648 20.086C15.858 20.086 16.34 20.086 16.8795 20.086C16.029 21.2777 15.2085 22.4274 14.3524 23.6262Z" fill="white"/>
</svg>
