<svg width="30" height="30" viewBox="0 0 30 30" fill="none" xmlns="http://www.w3.org/2000/svg">
<path d="M18.5714 24.0715C13.7061 24.0715 8.88013 24.0715 4 24.0715C4.02621 23.4412 4.01253 22.8328 4.08489 22.2384C4.18971 21.3773 4.29283 20.5043 4.50875 19.6764C5.02776 17.6877 6.23326 16.5148 7.93612 16.0015C9.51649 15.5247 11.1254 15.5028 12.7342 15.6564C13.4925 15.7288 14.2565 15.8931 14.988 16.1378C16.5125 16.6464 17.5329 17.8213 18.0507 19.5767C18.4763 21.0169 18.5521 22.5136 18.5714 24.0715ZM17.0526 22.3581C16.9865 21.9259 16.9387 21.5116 16.8578 21.1067C16.4772 19.2017 15.4825 17.9949 13.8326 17.5853C13.2521 17.441 12.6567 17.3466 12.0642 17.3073C10.726 17.2182 9.39059 17.2608 8.11045 17.8014C6.56882 18.4523 5.41459 20.5415 5.57923 22.3581C9.3923 22.3581 13.2054 22.3581 17.0526 22.3581Z" fill="white"/>
<path d="M7.64258 10.2348C7.66972 9.79466 7.65728 9.3484 7.73079 8.91655C8.02259 7.20517 9.59182 5.95056 11.342 6.0015C13.1606 6.05465 14.6592 7.34912 14.8435 9.09981C14.9436 10.0482 15.0041 11.0138 14.7349 11.9512C14.2667 13.5817 12.5674 14.6891 10.8998 14.4731C9.04386 14.2328 7.70309 12.8072 7.67029 11.0371C7.6652 10.7702 7.66972 10.5034 7.66972 10.2365C7.66067 10.2359 7.65163 10.2354 7.64258 10.2348ZM13.4609 10.2476C13.4524 10.247 13.4445 10.2465 13.436 10.2465C13.436 9.989 13.4417 9.73154 13.4349 9.47409C13.4066 8.37728 12.5114 7.47535 11.402 7.4211C10.2495 7.36462 9.23782 8.17076 9.13999 9.28307C9.08458 9.91204 9.0874 10.5526 9.13604 11.1827C9.2152 12.2114 10.0866 13.0081 11.1203 13.0635C12.231 13.1233 13.1725 12.4473 13.3806 11.3992C13.4547 11.0244 13.4366 10.6318 13.4609 10.2476Z" fill="white"/>
<path d="M23.0399 6.03807C23.0399 7.62297 23.0399 9.20864 23.0399 10.8363C24.2126 10.8363 25.36 10.8363 26.6429 10.8363C24.6202 13.1748 22.6681 15.4317 20.6313 17.7857C20.6313 16.0773 20.6313 14.4877 20.6313 12.8492C19.4255 12.8492 18.2659 12.8492 17 12.8492C19.0189 10.517 20.9729 8.25848 22.9278 6C22.9655 6.01243 23.0031 6.02486 23.0399 6.03807Z" fill="white"/>
</svg>
