<svg width="15" height="20" viewBox="0 0 15 20" fill="none" xmlns="http://www.w3.org/2000/svg">
<path d="M11.4375 1.10917V0H3.5625V1.10917H0V19.2H15V1.10917H11.4375ZM4.6875 1.125H10.3125V2.23417H4.6875V1.125ZM13.875 18.075H1.125V2.23417H3.5625V3.35918H11.4375V2.23417H13.875V18.075Z" fill="#71788B"/>
<path d="M5.625 4.67168H2.25V8.04668H5.625V4.67168ZM4.5 6.92168H3.375V5.79668H4.5V6.92168Z" fill="#71788B"/>
<path d="M7.49512 5.79668H12.7498V6.92168H7.49512V5.79668Z" fill="#71788B"/>
<path d="M5.625 9.32167H2.25V12.6967H5.625V9.32167ZM4.5 11.5717H3.375V10.4467H4.5V11.5717Z" fill="#71788B"/>
<path d="M7.49512 10.4467H12.7498V11.5717H7.49512V10.4467Z" fill="#71788B"/>
<path d="M7.49512 15.0217H12.7498V16.1467H7.49512V15.0217Z" fill="#71788B"/>
<path d="M3.48757 15.5762L2.76029 14.849L1.96484 15.6444L3.48757 17.1672L5.94779 14.7069L5.15234 13.9115L3.48757 15.5762Z" fill="#71788B"/>
</svg>
