<svg width="15" height="20" viewBox="0 0 15 20" fill="none" xmlns="http://www.w3.org/2000/svg">
<path d="M4.6875 0H10.3125V2.23417H4.6875V0Z" fill="#4070F4"/>
<path d="M3.375 10.4467H4.5V11.5717H3.375V10.4467Z" fill="#4070F4"/>
<path d="M11.4375 1.10918V3.35918H3.5625V1.10918C3.0753 1.10918 0.752213 1.10918 0 1.10918V19.2H15V1.10918C14.8754 1.10918 11.947 1.10918 11.4375 1.10918ZM2.25 4.67168H5.625V8.04668H2.25V4.67168ZM2.25 9.32168H5.625V12.6967H2.25V9.32168ZM3.4875 17.1672L1.96477 15.6444L2.76026 14.849L3.4875 15.5762L5.15228 13.9115L5.94776 14.7069L3.4875 17.1672ZM12.75 16.1467H7.5V15.0217H12.75V16.1467ZM12.75 11.5717H7.5V10.4467H12.75V11.5717ZM12.75 6.92168H7.5V5.79668H12.75V6.92168Z" fill="#4070F4"/>
<path d="M3.375 5.79668H4.5V6.92168H3.375V5.79668Z" fill="#4070F4"/>
</svg>
