<svg width="12" height="16" viewBox="0 0 12 16" fill="none" xmlns="http://www.w3.org/2000/svg">
<path d="M11.94 4.81107C11.8983 4.70721 11.8336 4.61306 11.747 4.52718C10.32 3.10484 8.89803 1.67676 7.47067 0.254065C7.41605 0.199802 7.35603 0.158476 7.29782 0.121463C7.2396 0.0848082 7.18282 0.0521067 7.13359 0.0186866L7.10592 0H7.07286C5.05795 0 3.04303 0 1.02848 0H1.01123L0.9947 0.00539035C0.916719 0.031264 0.831192 0.0542629 0.743869 0.0891205C0.514599 0.180756 0.327733 0.332764 0.199443 0.526458C0.0711526 0.72051 0.00179678 0.95553 0.00143743 1.21067C0.000359357 2.24634 0 3.28165 0 4.31695C0 4.79777 0 5.27859 0 5.75941C0 8.68422 0.000359357 11.609 0.000718714 14.5338C0.000718714 14.7318 0.0118588 14.9 0.0416854 15.0484C0.0639655 15.1598 0.0973857 15.2601 0.144821 15.3506C0.215973 15.4872 0.319468 15.5993 0.453868 15.6942C0.588626 15.7891 0.753931 15.8688 0.958405 15.9483L0.977091 15.9554H0.997215C4.33133 15.9554 7.66544 15.9554 10.9999 15.9554H11.0229L11.0438 15.9461C11.0592 15.9389 11.0714 15.9328 11.08 15.9285C11.0887 15.9242 11.0941 15.9224 11.0959 15.922C11.3697 15.848 11.5964 15.6999 11.7535 15.4965C11.9105 15.2931 11.996 15.0355 11.996 14.7498C11.9971 13.8938 11.9975 13.0375 11.9975 12.1815C11.9975 11.5239 11.9975 10.8659 11.9975 10.2082C11.9975 10.1759 11.9975 10.1436 11.9975 10.1112C11.9975 10.1004 11.9975 10.0897 11.9975 10.0792C11.9975 9.24913 11.9968 8.41937 11.9968 7.58926C11.9968 6.77639 11.9975 5.96353 12 5.15066V5.14994V5.14671C12 5.02668 11.9817 4.91492 11.94 4.81107ZM10.799 5.68251C10.7994 8.66912 10.7997 11.6554 10.7997 14.642V14.6416V14.6495C10.7997 14.6981 10.7994 14.7333 10.7972 14.7541C10.7926 14.7545 10.7872 14.7548 10.7811 14.7552C10.7584 14.7563 10.7268 14.7563 10.6869 14.7563C9.12515 14.7563 7.56302 14.7563 6.00126 14.7563C4.43949 14.7563 2.87737 14.7563 1.31561 14.7563C1.2617 14.7563 1.22289 14.7559 1.20097 14.7538C1.20025 14.7462 1.19953 14.7365 1.19917 14.725C1.1981 14.7013 1.1981 14.67 1.1981 14.6316C1.1981 12.4136 1.1981 10.1953 1.1981 7.97736C1.1981 5.75941 1.1981 3.5411 1.1981 1.32315C1.1981 1.26745 1.19845 1.22684 1.20097 1.20456C1.20708 1.20385 1.21427 1.20313 1.22325 1.20277C1.24697 1.20169 1.27931 1.20169 1.32028 1.20169C2.03252 1.20169 2.74441 1.20169 3.45665 1.20169C4.40607 1.20169 5.35549 1.20169 6.30527 1.20169C6.33007 1.20169 6.35522 1.20169 6.38218 1.20169C6.38218 1.61531 6.38218 2.01132 6.38218 2.40661C6.38218 2.81269 6.38182 3.21876 6.38182 3.62519C6.38182 3.89004 6.38182 4.15524 6.38254 4.42009C6.38289 4.76291 6.50831 5.06621 6.72285 5.28254C6.93702 5.49888 7.23924 5.62645 7.58135 5.62681C8.01222 5.62789 8.44309 5.62789 8.87396 5.62789C9.49133 5.62789 10.1087 5.62717 10.7257 5.62717C10.7494 5.62717 10.7739 5.62717 10.799 5.62717C10.799 5.64621 10.799 5.66454 10.799 5.68251ZM9.51828 4.42763C9.35945 4.42763 9.20097 4.42763 9.04214 4.42763C8.57533 4.42763 8.10817 4.42799 7.641 4.42943H7.64136H7.63849C7.61513 4.42943 7.5968 4.42835 7.58638 4.4262C7.58387 4.42584 7.58243 4.42548 7.58099 4.42476C7.57955 4.41901 7.57776 4.40751 7.57776 4.39026V4.38918V4.38882C7.57991 3.94969 7.58027 3.51056 7.58027 3.07142C7.58027 2.74728 7.57991 2.42314 7.57991 2.099C8.35612 2.87485 9.13233 3.65106 9.90962 4.42799C9.77918 4.42763 9.64873 4.42763 9.51828 4.42763Z" fill="#71788B"/>
<path d="M5.57562 11.3492C5.69708 11.4692 5.84873 11.535 6.00217 11.535C6.15059 11.5353 6.29756 11.4732 6.41436 11.3578C6.91494 10.8655 7.40905 10.3671 7.90209 9.86865C7.95671 9.81331 7.99948 9.75114 8.02787 9.68323C8.05662 9.61531 8.07099 9.54272 8.07099 9.46833C8.07099 9.41694 8.06416 9.36484 8.05123 9.31273C8.01601 9.17114 7.93731 9.05543 7.83489 8.97709C7.73248 8.89839 7.60706 8.85671 7.47877 8.85671C7.3282 8.85635 7.1726 8.91492 7.04826 9.03531C6.89805 9.17977 6.75395 9.32818 6.59835 9.48845C6.59835 8.99865 6.59871 8.50885 6.59871 8.01868C6.59871 7.60471 6.59835 7.19037 6.59763 6.77639C6.59727 6.60174 6.53402 6.4447 6.42621 6.33186C6.31877 6.21867 6.16676 6.15111 5.99966 6.15111H5.99678C5.82932 6.15147 5.67731 6.21975 5.5713 6.3333C5.46458 6.44686 5.40313 6.60426 5.40133 6.7789C5.40061 6.83604 5.40061 6.89282 5.40061 6.9496C5.40061 7.04231 5.40133 7.13431 5.40133 7.22594C5.40133 7.98095 5.40133 8.73632 5.40133 9.49133C5.24968 9.33393 5.09767 9.17474 4.93776 9.02129C4.82205 8.91025 4.67435 8.85419 4.52809 8.85455C4.37573 8.85455 4.22444 8.91456 4.10872 9.02848C3.98978 9.14563 3.92689 9.30087 3.92725 9.45683C3.92689 9.60525 3.98439 9.75546 4.09902 9.87189C4.58667 10.3678 5.07935 10.8601 5.57562 11.3492Z" fill="#71788B"/>
<path d="M9.00266 12.6558C8.9545 12.5451 8.87221 12.4539 8.76764 12.3924C8.66306 12.3306 8.53657 12.2975 8.39894 12.2975C7.59901 12.2972 6.79872 12.2968 5.99879 12.2968C5.19887 12.2968 4.39858 12.2972 3.59865 12.2975C3.41502 12.2975 3.25151 12.3561 3.13328 12.4632C3.07435 12.5168 3.02727 12.5818 2.99529 12.6555C2.96331 12.7291 2.94678 12.8107 2.94678 12.8966V12.9023C2.9475 12.9886 2.9651 13.0702 2.99781 13.1435C3.04704 13.2538 3.13077 13.344 3.23606 13.4044C3.34171 13.4651 3.46856 13.4967 3.60656 13.4967C3.87248 13.4967 4.1384 13.4967 4.40397 13.4967C4.93546 13.4967 5.46731 13.4967 5.99879 13.4967H6.1066V13.496C6.52633 13.496 6.94606 13.496 7.36579 13.496C7.70754 13.496 8.04928 13.496 8.39103 13.4956C8.5761 13.4956 8.74105 13.4396 8.86035 13.3339C8.92 13.2811 8.9678 13.2164 9.00014 13.1431C9.03248 13.0698 9.04973 12.9879 9.05045 12.9016V12.9009V12.9013V12.8962C9.05153 12.8111 9.03464 12.7291 9.00266 12.6558Z" fill="#71788B"/>
</svg>
