<svg width="12" height="16" viewBox="0 0 12 16" fill="none" xmlns="http://www.w3.org/2000/svg">
<path d="M11.0927 15.9956C7.69729 15.9956 4.30185 15.9956 0.906051 15.9956C0.898125 15.9892 0.89092 15.9798 0.881913 15.9769C0.271635 15.7946 0 15.4333 0 14.8021C0 10.2578 0 5.7135 0 1.1692C0 0.453005 0.453566 0.000160115 1.17048 0.000160115C2.76355 -0.000200144 4.35661 0.000160115 5.94967 0.000160115C6.00371 0.000160115 6.05775 0.000160115 6.07432 0.000160115C6.04802 0.240813 6.00371 0.464894 6.00263 0.688975C5.99579 1.90161 5.99759 3.1146 6.00155 4.32759C6.00191 4.48214 6.01308 4.64137 6.05055 4.79088C6.23248 5.52041 6.85212 5.99631 7.61695 5.99811C8.79356 6.00063 9.97016 5.99811 11.1468 5.99847C11.4317 5.99847 11.7199 6.02405 11.9991 5.86589C11.9991 5.94551 11.9991 6.00135 11.9991 6.05755C11.9995 7.42653 11.9999 8.79552 11.9999 10.1645C11.9999 11.7367 12.0006 13.3085 11.9988 14.8806C11.9981 15.4192 11.6803 15.8267 11.1626 15.9661C11.1378 15.9719 11.1158 15.9856 11.0927 15.9956ZM5.50043 9.74768C5.48746 9.75344 5.47485 9.75921 5.46188 9.76461C5.25762 9.5571 5.05731 9.34527 4.84764 9.14317C4.64085 8.9443 4.3404 8.95043 4.14622 9.14569C3.956 9.33699 3.94339 9.6378 4.13757 9.83522C4.63041 10.3363 5.1272 10.8339 5.6312 11.3235C5.88699 11.572 6.14277 11.5576 6.39675 11.3054C6.74404 10.9603 7.08953 10.6137 7.43538 10.2675C7.57876 10.1238 7.72683 9.98437 7.86409 9.83486C8.05214 9.63024 8.04242 9.33482 7.85112 9.14497C7.6591 8.95439 7.36477 8.94827 7.15978 9.13236C7.10178 9.1846 7.04846 9.24188 6.99334 9.297C6.83771 9.45263 6.68208 9.6079 6.49979 9.79019C6.49979 9.6904 6.49979 9.6342 6.49979 9.578C6.49979 8.6669 6.50015 7.75581 6.49943 6.84472C6.49943 6.77735 6.50123 6.70818 6.48718 6.64297C6.43278 6.39115 6.19537 6.22255 5.94391 6.25065C5.69209 6.27875 5.50259 6.48698 5.50115 6.75285C5.49791 7.39843 5.50043 8.04402 5.50079 8.6896C5.50043 9.04265 5.50043 9.39499 5.50043 9.74768ZM5.99903 12.4965C5.17656 12.4965 4.35373 12.4957 3.53126 12.4968C3.29385 12.4972 3.11516 12.6125 3.0359 12.8092C2.89828 13.151 3.14758 13.4944 3.53954 13.4947C5.16899 13.4965 6.7988 13.4962 8.42825 13.4962C8.7705 13.4962 9.00106 13.2912 8.99854 12.9922C8.99602 12.6932 8.76762 12.4972 8.41997 12.4968C7.61299 12.4965 6.80601 12.4965 5.99903 12.4965Z" fill="#4070F4"/>
<path d="M11.4582 4.99839C11.4128 4.99839 11.3674 4.99839 11.322 4.99839C10.1043 4.99839 8.88665 4.99875 7.66934 4.99839C7.22766 4.99839 6.99854 4.76782 6.99854 4.32398C6.99854 3.11171 6.9989 1.89944 6.99926 0.687533C6.99926 0.637457 6.99926 0.587381 6.99926 0.542709C8.48568 2.02806 9.96671 3.508 11.4582 4.99839Z" fill="#4070F4"/>
</svg>
