<svg width="16" height="16" viewBox="0 0 16 16" fill="none" xmlns="http://www.w3.org/2000/svg">
<path d="M15.849 7.7559C15.8553 7.74818 15.8608 7.74006 15.8667 7.73215C15.8738 7.72265 15.8812 7.71337 15.8878 7.7035C15.8941 7.69403 15.8996 7.68418 15.9055 7.67443C15.9108 7.6655 15.9164 7.65678 15.9213 7.64756C15.9266 7.63762 15.9311 7.6274 15.9359 7.61728C15.9405 7.60769 15.9452 7.59825 15.9493 7.58844C15.9534 7.57859 15.9566 7.56856 15.9602 7.55856C15.964 7.54803 15.968 7.53762 15.9713 7.52684C15.9744 7.51684 15.9766 7.50669 15.9791 7.49659C15.9819 7.48562 15.985 7.47478 15.9872 7.46359C15.9895 7.45187 15.9909 7.44006 15.9925 7.42828C15.9939 7.41856 15.9958 7.40897 15.9968 7.39913C16.0011 7.35538 16.0011 7.31128 15.9968 7.26753C15.9958 7.25769 15.994 7.24813 15.9925 7.23841C15.9909 7.2266 15.9895 7.21478 15.9871 7.2031C15.9849 7.19191 15.9819 7.1811 15.9791 7.17013C15.9765 7.16 15.9743 7.14985 15.9713 7.13985C15.968 7.1291 15.964 7.11869 15.9602 7.10819C15.9566 7.09819 15.9534 7.08813 15.9493 7.07828C15.9452 7.06847 15.9405 7.05903 15.9359 7.04947C15.9311 7.03932 15.9266 7.0291 15.9213 7.01916C15.9164 7.00997 15.9108 7.00125 15.9055 6.99232C15.8997 6.98257 15.8942 6.97272 15.8878 6.96322C15.8812 6.95338 15.8739 6.9441 15.8668 6.93463C15.8609 6.92669 15.8553 6.91854 15.849 6.91082C15.8351 6.89397 15.8206 6.87776 15.8052 6.86235C15.805 6.86222 15.805 6.8621 15.8048 6.86197L13.8049 4.862C13.5445 4.60165 13.1224 4.60165 12.8621 4.862C12.6017 5.12234 12.6017 5.54446 12.8621 5.8048L13.724 6.66673H12.0002V0.666791C12.0002 0.298607 11.7017 0.000141461 11.3335 0.000141461H0.679399C0.653743 -0.000389784 0.628306 0.000578957 0.603181 0.00298518C0.5979 0.00342268 0.592713 0.00398517 0.587463 0.00454766C0.582338 0.00517266 0.577213 0.00592265 0.572119 0.00664139C0.287279 0.042141 0.100687 0.235795 0.0308438 0.465824C0.0259063 0.481511 0.0216876 0.497511 0.0179064 0.51373C0.0177502 0.514355 0.0176564 0.51498 0.0175002 0.515605C0.013594 0.532542 0.0104378 0.549761 0.00784404 0.567229C0.00759404 0.568854 0.00734405 0.570479 0.00709405 0.572104C0.00487532 0.587823 0.00309409 0.603666 0.00200035 0.61976C0.000156623 0.643885 -0.000374621 0.668072 0.000250373 0.692259V14C0.000250373 14.3177 0.22456 14.5914 0.536182 14.6537L7.20277 15.987C7.61529 16.0695 8.00016 15.754 8.00016 15.3333V14.6666H11.3335C11.7017 14.6666 12.0001 14.3682 12.0001 14V8.00006H13.7239L12.862 8.86198C12.6017 9.12232 12.6017 9.54445 12.862 9.80479C13.1224 10.0651 13.5445 10.0651 13.8048 9.80479L15.8048 7.80481C15.8049 7.80468 15.805 7.80456 15.8051 7.80443C15.8206 7.78896 15.8351 7.77278 15.849 7.7559ZM6.66687 14.5201L1.33358 13.4534V1.56278L6.66687 3.16276V14V14.5201ZM10.6668 13.3333H8.0002V2.66674C8.0002 2.37233 7.80707 2.11278 7.52511 2.02818L5.20919 1.33341H10.6669V13.3333H10.6668Z" fill="#71788B"/>
</svg>
