<svg width="16" height="17" viewBox="0 0 16 17" fill="none" xmlns="http://www.w3.org/2000/svg">
<path d="M15.9494 7.07912C15.9154 6.99777 15.8667 6.92376 15.8047 6.86176L13.8052 4.86225C13.5445 4.60222 13.1232 4.60222 12.8625 4.86225C12.6018 5.12292 12.6018 5.54496 12.8625 5.80498L13.7246 6.66705H10.0002C9.63152 6.66705 9.3335 6.96573 9.3335 7.33376C9.3335 7.7018 9.63152 8.00048 10.0002 8.00048H13.7245L12.8624 8.86255C12.6018 9.12323 12.6018 9.54526 12.8624 9.80528C12.9925 9.93595 13.1631 10.0006 13.3338 10.0006C13.5045 10.0006 13.6752 9.93598 13.8052 9.80528L15.8047 7.80577C15.8667 7.74442 15.9154 7.67042 15.9494 7.58841C16.0167 7.4258 16.0167 7.24179 15.9494 7.07912Z" fill="#4070F4"/>
<path d="M11.3343 9.33412C10.9656 9.33412 10.6675 9.63281 10.6675 10.0008V13.3345H8.00067V2.66688C8.00067 2.37285 7.80731 2.11283 7.52529 2.02817L5.20975 1.33346H10.6675V4.66708C10.6675 5.03511 10.9656 5.33379 11.3343 5.33379C11.7029 5.33379 12.001 5.03511 12.001 4.66708V0.666743C12.001 0.298681 11.7029 0 11.3343 0H0.666712C0.64271 0 0.621364 0.0100008 0.59805 0.0126573C0.566704 0.0160013 0.538045 0.0213143 0.508043 0.0286586C0.438037 0.0466602 0.374688 0.0740062 0.31537 0.111322C0.300713 0.120666 0.282711 0.121323 0.26871 0.13198C0.263335 0.136011 0.261334 0.143356 0.25599 0.147356C0.183328 0.204673 0.122667 0.274679 0.0786628 0.35803C0.0693183 0.376031 0.0673181 0.395377 0.060005 0.414035C0.0386595 0.464695 0.015345 0.514043 0.00734436 0.570048C0.00400033 0.590049 0.0100008 0.608707 0.00934453 0.628053C0.00868823 0.641397 0 0.653398 0 0.666712V14.0012C0 14.3192 0.224675 14.5926 0.536045 14.6546L7.20326 15.988C7.24661 15.9974 7.29061 16.0014 7.33393 16.0014C7.48659 16.0014 7.63661 15.9487 7.75662 15.85C7.91063 15.7233 8.00064 15.5346 8.00064 15.3346V14.6679H11.3343C11.7029 14.6679 12.001 14.3692 12.001 14.0012V10.0008C12.001 9.63281 11.7029 9.33412 11.3343 9.33412Z" fill="#4070F4"/>
</svg>
