<svg width="15" height="18" viewBox="0 0 15 18" fill="none" xmlns="http://www.w3.org/2000/svg">
<path d="M2.53809 4.87195H9.30737V5.92546H2.53809V4.87195Z" fill="#71788B"/>
<path d="M2.53809 6.97897H9.30737V8.03249H2.53809V6.97897Z" fill="#71788B"/>
<path d="M2.53809 9.08601H9.30737V10.1395H2.53809V9.08601Z" fill="#71788B"/>
<path d="M13.7232 11.6154C13.1904 11.076 12.5336 10.7369 11.8449 10.5979V0.421406C11.8449 0.18867 11.6585 0 11.4286 0H2.38583L0 2.41561V15.0725C0 15.3052 0.186347 15.4939 0.416217 15.4939H7.64553C7.826 16.0125 8.12023 16.4878 8.51556 16.888C9.21106 17.5922 10.1358 17.98 11.1194 17.98C12.1029 17.98 13.0277 17.5922 13.7232 16.888C15.1589 15.4344 15.1589 13.0691 13.7232 11.6154ZM2.73087 1.14057V2.76492H1.12653L2.73087 1.14057ZM1.04054 14.4404V3.81847H3.77141V1.05352H10.8043V10.539C9.96896 10.611 9.15338 10.9696 8.51556 11.6154C7.82003 12.3196 7.43701 13.2559 7.43701 14.2517C7.43701 14.3149 7.43857 14.3777 7.44162 14.4403L1.04054 14.4404ZM12.9874 16.1431C12.4885 16.6483 11.825 16.9265 11.1194 16.9265C10.4137 16.9265 9.75027 16.6483 9.25133 16.1431C8.75236 15.6379 8.47755 14.9662 8.47755 14.2517C8.47755 13.5373 8.75236 12.8656 9.25133 12.3604C9.76643 11.8389 10.4428 11.5782 11.1194 11.5782C11.7958 11.5782 12.4725 11.839 12.9874 12.3604C14.0175 13.4033 14.0175 15.1002 12.9874 16.1431Z" fill="#71788B"/>
<path d="M11.64 12.8461H10.5995V13.725H9.73145V14.7785H10.5995V15.6574H11.64V14.7785H12.5081V13.725H11.64V12.8461Z" fill="#71788B"/>
</svg>
