<svg width="15" height="18" viewBox="0 0 15 18" fill="none" xmlns="http://www.w3.org/2000/svg">
<path d="M2.23464 0.00354004L0.00341797 2.23473H2.23464V0.00354004Z" fill="#4070F4"/>
<path d="M8.24954 11.4296C9.09085 10.5883 10.2094 10.125 11.3992 10.125C11.4731 10.125 11.5467 10.1268 11.6199 10.1303V0.421409C11.6199 0.188672 11.4313 0 11.1985 0H3.28822V3.28822H0V14.9178C0 15.1506 0.188671 15.3392 0.421409 15.3392H7.00916C6.96667 15.0906 6.94489 14.8367 6.94489 14.5793C6.94489 13.3895 7.40823 12.2709 8.24954 11.4296ZM2.16984 4.64846H9.45014V5.70198H2.16984V4.64846ZM2.16984 6.88667H9.45014V7.94019H2.16984V6.88667ZM2.16984 9.12484H9.45014V10.1784H2.16984V9.12484Z" fill="#4070F4"/>
<path d="M13.8041 12.1745C12.476 10.8464 10.3227 10.8464 8.99461 12.1745C7.66651 13.5026 7.66651 15.6559 8.99461 16.984C10.3227 18.3121 12.476 18.3121 13.8041 16.984C15.1322 15.6559 15.1322 13.5026 13.8041 12.1745ZM12.8925 15.106H11.9261V16.0724H10.8726V15.106H9.90623V14.0525H10.8726V13.0861H11.9261V14.0525H12.8925V15.106Z" fill="#4070F4"/>
</svg>
