<svg width="14" height="15" viewBox="0 0 14 15" fill="none" xmlns="http://www.w3.org/2000/svg">
<path d="M12.6871 11.4329V9.18805C12.6871 6.72954 11.1189 4.6306 8.93041 3.83844C9.09107 3.62083 9.18625 3.35209 9.18625 3.06147C9.18625 2.59479 8.94092 2.18453 8.57267 1.95217C8.95214 1.55876 9.18625 1.02427 9.18625 0.435797C9.18625 0.195121 8.99113 0 8.75045 0H5.24955C5.00887 0 4.81375 0.195121 4.81375 0.435797C4.81375 1.02427 5.04786 1.55876 5.42733 1.95217C5.05908 2.18453 4.81375 2.59479 4.81375 3.06147C4.81375 3.35209 4.90896 3.62083 5.06959 3.83844C2.88105 4.6306 1.31285 6.72954 1.31285 9.18805V11.4329C0.558837 11.6271 0 12.3128 0 13.1265C2.90531e-05 14.0908 0.784434 14.8752 1.74865 14.8752H12.2514C13.2156 14.8752 14 14.0908 14 13.1265C14 12.3128 13.4412 11.6271 12.6871 11.4329ZM7 8.75225C7.7229 8.75225 8.31102 9.34037 8.31102 10.0633C8.31102 10.6334 7.94507 11.1195 7.4358 11.2995V11.8137C7.4358 12.0544 7.24068 12.2495 7 12.2495C6.75932 12.2495 6.5642 12.0544 6.5642 11.8137V11.3743H6.12477C5.8841 11.3743 5.68898 11.1792 5.68898 10.9385C5.68898 10.6978 5.8841 10.5027 6.12477 10.5027H7C7.2423 10.5027 7.43943 10.3056 7.43943 10.0633C7.43943 9.82097 7.2423 9.62385 7 9.62385C6.2771 9.62385 5.68898 9.03572 5.68898 8.31282C5.68898 7.74268 6.05493 7.25663 6.5642 7.07656V6.56237C6.5642 6.3217 6.75932 6.12658 7 6.12658C7.24068 6.12658 7.4358 6.3217 7.4358 6.56237V7.0018H7.87523C8.1159 7.0018 8.31102 7.19692 8.31102 7.4376C8.31102 7.67827 8.1159 7.87339 7.87523 7.87339H7C6.7577 7.87339 6.56057 8.07052 6.56057 8.31282C6.56057 8.55513 6.7577 8.75225 7 8.75225Z" fill="#4070F4"/>
</svg>
