<svg width="14" height="15" viewBox="0 0 14 15" fill="none" xmlns="http://www.w3.org/2000/svg">
<path d="M12.6871 11.4329V9.18805C12.6871 6.72954 11.1189 4.6306 8.93041 3.83844C9.09107 3.62083 9.18625 3.35209 9.18625 3.06147C9.18625 2.59479 8.94092 2.18453 8.57267 1.95217C8.95214 1.55876 9.18625 1.02427 9.18625 0.435797C9.18625 0.195121 8.99113 0 8.75045 0H5.24955C5.00887 0 4.81375 0.195121 4.81375 0.435797C4.81375 1.02427 5.04786 1.55876 5.42733 1.95217C5.05908 2.18453 4.81375 2.59479 4.81375 3.06147C4.81375 3.35209 4.90896 3.62083 5.06959 3.83844C2.88105 4.6306 1.31285 6.72954 1.31285 9.18805V11.4329C0.558837 11.6271 0 12.3128 0 13.1265C2.90531e-05 14.0908 0.784434 14.8752 1.74865 14.8752H12.2514C13.2156 14.8752 14 14.0908 14 13.1265C14 12.3128 13.4412 11.6271 12.6871 11.4329ZM8.24042 0.871594C8.06024 1.38296 7.5722 1.75045 7 1.75045C6.4278 1.75045 5.93976 1.38296 5.75958 0.871594H8.24042ZM6.12477 3.5009C5.88247 3.5009 5.68535 3.30378 5.68535 3.06147C5.68535 2.81917 5.88247 2.62204 6.12477 2.62204H7.87523C8.11753 2.62204 8.31465 2.81917 8.31465 3.06147C8.31465 3.30378 8.11753 3.5009 7.87523 3.5009H6.12477ZM12.2514 14.0036H1.74865C1.26503 14.0036 0.871594 13.6102 0.871594 13.1265C0.871594 12.6429 1.26503 12.2495 1.74865 12.2495C1.98933 12.2495 2.18445 12.0544 2.18445 11.8137V9.18805C2.18445 6.53274 4.34469 4.37249 7 4.37249C9.65531 4.37249 11.8156 6.53274 11.8156 9.18805V11.8137C11.8156 12.0544 12.0107 12.2495 12.2514 12.2495C12.735 12.2495 13.1284 12.643 13.1284 13.1266C13.1284 13.6102 12.735 14.0036 12.2514 14.0036Z" fill="#71788B"/>
<path d="M6.99999 7.87339H7.87521C8.11589 7.87339 8.31101 7.67827 8.31101 7.43759C8.31101 7.19692 8.11589 7.0018 7.87521 7.0018H7.43578V6.56237C7.43578 6.32169 7.24066 6.12657 6.99999 6.12657C6.75931 6.12657 6.56419 6.32169 6.56419 6.56237V7.07655C6.05492 7.25662 5.68896 7.74265 5.68896 8.31282C5.68896 9.03572 6.27709 9.62384 6.99999 9.62384C7.24229 9.62384 7.43942 9.82097 7.43942 10.0633C7.43942 10.3056 7.24229 10.5027 6.99999 10.5027H6.12476C5.88409 10.5027 5.68896 10.6978 5.68896 10.9385C5.68896 11.1792 5.88409 11.3743 6.12476 11.3743H6.56419V11.8137C6.56419 12.0544 6.75931 12.2495 6.99999 12.2495C7.24066 12.2495 7.43578 12.0544 7.43578 11.8137V11.2995C7.94506 11.1195 8.31101 10.6334 8.31101 10.0633C8.31101 9.34037 7.72289 8.75225 6.99999 8.75225C6.75768 8.75225 6.56056 8.55512 6.56056 8.31282C6.56056 8.07052 6.75768 7.87339 6.99999 7.87339Z" fill="#71788B"/>
</svg>
