<svg width="152" height="152" viewBox="0 0 152 152" fill="none" xmlns="http://www.w3.org/2000/svg">
<path d="M149.017 15.3318L129.389 49.3983L127.336 52.1076C125.14 55.0063 121.128 55.812 117.983 53.9856L94.4749 40.3317C91.2723 38.4715 90.0037 34.4851 91.5427 31.1161L94.1451 25.4182L107.144 2.96875H149.017V15.3318Z" fill="#F9D6BD"/>
<path d="M52.011 149.032C79.0885 149.032 101.039 127.081 101.039 100.004C101.039 72.9262 79.0885 50.9756 52.011 50.9756C24.9335 50.9756 2.98291 72.9262 2.98291 100.004C2.98291 127.081 24.9335 149.032 52.011 149.032Z" fill="#FFCB3A"/>
<path d="M70.4144 145.46L52.0592 134.229V117.221L67.3842 106.086L85.2677 110.102L88.8311 132.373L70.4144 145.46Z" fill="white"/>
<path d="M100.729 94.505L85.2676 110.102L67.3841 106.086L61.5306 88.0705L72.5833 71.0625L94.3268 75.2363L100.729 94.505Z" fill="white"/>
<path d="M35.3574 146.13L51.9617 134.229V117.221L36.6366 106.086L18.7534 110.102L16.0513 133.327L35.3574 146.13Z" fill="white"/>
<path d="M3.32043 94.2535L18.7535 110.102L36.6367 106.086L42.4905 88.0705L31.4378 71.0625L9.75046 75.1359L3.32043 94.2535Z" fill="white"/>
<path d="M42.4894 51.9033L31.4379 71.0625L42.4905 88.0705H61.5307L72.5833 71.0625L61.5307 51.9033H42.4894Z" fill="white"/>
<path d="M122.146 74.6776L117.26 83.1392C114.602 87.7431 108.199 89.0221 102.958 85.9963L88.8833 77.8705C87.7056 74.3918 85.1457 71.3417 81.7667 69.3909L73.5583 64.6519C71.816 63.646 69.794 63.2892 67.9373 63.6603C66.0898 64.0293 64.0782 63.6745 62.3448 62.6738L17.1068 36.5556C11.7868 33.4838 9.6615 27.2055 12.3595 22.5323L17.2449 14.0708L122.146 74.6776Z" fill="#FFC66C"/>
<path d="M109.659 49.4021C112.654 51.1311 116.179 51.5598 119.227 50.5647L122.673 49.4398C125.71 48.4483 129.224 48.8752 132.209 50.5985C133.799 51.5165 134.434 53.393 133.628 54.7898L122.146 74.6778C119.488 79.2818 113.084 80.5607 107.843 77.5349L93.7687 69.4089C92.591 65.9301 90.031 62.88 86.652 60.9292L78.4437 56.1902C76.7013 55.1844 74.6793 54.8275 72.8226 55.1986C70.9752 55.5676 68.9635 55.2129 67.2301 54.2121L21.9916 28.0933C16.6719 25.0218 14.5462 18.7435 17.2445 14.0707C19.2683 10.5652 23.4706 8.7652 27.9365 9.49017C27.9365 9.49017 84.5816 19.8963 90.2255 23.1545L94.1454 25.4175L91.2158 30.4917C89.2413 33.9115 90.4128 38.2841 93.8316 40.2592L109.659 49.4021Z" fill="#4070F4"/>
<path d="M66.214 17.5381L70.3572 33.0003L81.0516 34.8566L76.9253 19.4559L66.214 17.5381Z" fill="#EDF2FA"/>
<path d="M117.167 51.0105C117.869 50.928 118.56 50.7825 119.227 50.5646L121.038 49.9732L124.659 49.0031C127.176 48.691 129.857 49.2403 132.209 50.5985C133.799 51.5164 134.435 53.393 133.628 54.7898L122.146 74.6777C119.488 79.2817 113.084 80.5606 107.843 77.5349L93.7688 69.4088C92.5911 65.93 90.0312 62.8799 86.6521 60.9291L84.7126 59.8096L84.7165 59.706L117.167 51.0105Z" fill="#4070F4"/>
<path d="M44.8578 14.0708L48.8917 29.1257L59.5861 30.9817L55.5189 15.8016L44.8578 14.0708Z" fill="#EDF2FA"/>
<path d="M93.2624 91.897L93.8808 92.2541C96.0658 93.5155 98.8594 92.7671 100.121 90.5821L102.761 86.0079L94.2314 81.083L91.5907 85.6573C90.3293 87.842 91.0777 90.6356 93.2624 91.897Z" fill="#7D9BFF"/>
<path d="M43.4133 63.1167L44.0317 63.4739C46.2167 64.7353 49.0103 63.9869 50.2714 61.8019L52.9121 57.2276L44.3823 52.3027L41.7416 56.877C40.4799 59.0617 41.2286 61.8553 43.4133 63.1167Z" fill="#7D9BFF"/>
<path d="M18.0207 48.4561L18.6391 48.8132C20.8241 50.0746 23.6177 49.3262 24.8788 47.1412L27.5195 42.567L18.9897 37.6421L16.349 42.2163C15.0872 44.4011 15.8357 47.195 18.0207 48.4561Z" fill="#7D9BFF"/>
<path d="M94.1264 54.2168C93.3459 54.2168 92.5799 54.5342 92.0278 55.0863C91.4756 55.6385 91.1582 56.4012 91.1582 57.185C91.1582 57.9654 91.4759 58.7314 92.0278 59.2833C92.5799 59.8355 93.3456 60.1531 94.1264 60.1531C94.9098 60.1531 95.6728 59.8355 96.225 59.2833C96.7801 58.7314 97.0945 57.9657 97.0945 57.185C97.0945 56.4012 96.7798 55.6385 96.225 55.0863C95.6728 54.5345 94.9101 54.2168 94.1264 54.2168Z" fill="black"/>
<path d="M145.405 21.6023C143.985 20.7841 142.17 21.2721 141.352 22.6924L127.888 46.0601C126.664 45.9054 125.433 45.9072 124.226 46.0645C124.221 46.0654 124.216 46.0654 124.211 46.0663C123.377 46.1761 122.553 46.3566 121.753 46.6185L120.194 47.1273L116.622 48.0844C114.804 48.2501 112.851 47.8176 111.144 46.8319L95.3175 37.6893C93.3207 36.536 92.6347 33.9728 93.7874 31.9763L96.7143 26.9065C96.7146 26.9062 96.7149 26.9059 96.7149 26.9053L109.713 4.45591C110.534 3.03744 110.05 1.22145 108.632 0.399998C107.213 -0.420863 105.397 0.0627471 104.576 1.48152L93.0631 21.3653L91.7105 20.5846C85.9161 17.2388 38.017 8.3239 28.4733 6.57115C28.4531 6.56729 28.4329 6.56402 28.4128 6.56046C22.7157 5.63688 17.3221 8.0012 14.6745 12.587L9.79034 21.048C6.39854 26.9223 8.72396 34.6856 14.9474 38.71L13.7801 40.7323C12.7736 42.4756 12.5062 44.5062 13.0272 46.4507C13.5482 48.3953 14.7954 50.0201 16.5386 51.0265L17.157 51.3836C18.3184 52.0543 19.6068 52.3966 20.9131 52.3966C21.5677 52.3966 22.2265 52.3105 22.876 52.1362C24.8203 51.6152 26.4454 50.3683 27.4518 48.6251L28.6084 46.6214L35.6001 50.6581C26.1503 53.8112 17.6751 59.6944 11.3991 67.5351C9.899 69.4093 8.53931 71.3829 7.32123 73.4361C7.24226 73.5492 7.17279 73.6683 7.11015 73.7912C3.54675 79.9074 1.25546 86.7222 0.39868 93.7635C0.382946 93.8582 0.371665 93.9532 0.365134 94.0488C0.135649 96.0203 0.0166016 98.0085 0.0166016 100.004C0.0166016 113.503 5.18877 125.816 13.6536 135.069C13.7982 135.268 13.9659 135.45 14.1559 135.608C19.662 141.46 26.5041 146.04 34.1917 148.854C34.3132 148.905 34.437 148.949 34.5634 148.985C40.0203 150.935 45.894 152 52.0126 152C58.8327 152 65.3494 150.678 71.3226 148.28C71.4769 148.23 71.6277 148.17 71.7726 148.096C79.1022 145.073 85.5946 140.422 90.7967 134.595C90.9766 134.435 91.1363 134.256 91.2726 134.059C99.2021 124.929 104.008 113.017 104.008 100.004C104.008 98.0854 103.896 96.1575 103.687 94.2563C103.683 94.2144 103.678 94.1729 103.673 94.1313C103.645 93.8811 103.621 93.6299 103.59 93.3808C103.586 93.3517 103.582 93.3232 103.577 93.2944L103.236 91.1237L104.034 89.7417C105.651 90.3138 107.31 90.5961 108.933 90.5961C113.409 90.5961 117.603 88.4845 119.832 84.623L124.717 76.1618L136.2 56.2738C137.823 53.4615 136.699 49.7624 133.694 48.0277C133.672 48.015 133.649 48.0037 133.627 47.9909L146.495 25.6555C147.314 24.2355 146.826 22.4207 145.405 21.6023ZM76.9837 31.1376L72.7348 30.4002L70.1885 20.8963C71.683 21.2214 73.1228 21.5399 74.4953 21.8493L76.9837 31.1376ZM55.5187 27.2631L51.2698 26.5256L48.5688 16.4455C49.9953 16.727 51.4242 17.0108 52.848 17.2952L55.5187 27.2631ZM22.3096 45.6572C22.0958 46.0274 21.7509 46.2922 21.3385 46.4023C20.9258 46.5134 20.4951 46.4564 20.1249 46.2426L19.5065 45.8855C19.5065 45.8855 19.5065 45.8855 19.5062 45.8855C19.1363 45.6717 18.8715 45.3268 18.761 44.9144C18.6503 44.5018 18.707 44.0707 18.9207 43.7008L20.0774 41.6969L23.4665 43.6536L22.3096 45.6572ZM60.8619 65.2439C63.2321 66.6124 65.9521 67.0833 68.5198 66.5709C69.6657 66.342 70.9619 66.5792 72.0757 67.2225L80.284 71.9615C83.0224 73.5427 85.1326 76.0433 86.0737 78.8226C86.305 79.5057 86.7767 80.0808 87.401 80.4412L90.2326 82.0761L89.0217 84.1735C86.9439 87.7723 88.1815 92.3904 91.78 94.468L91.7803 94.4683L92.3983 94.8248C93.3148 95.3542 94.2978 95.6656 95.2876 95.7805L84.3177 106.847L69.6865 103.562L68.1291 98.7682L64.796 88.5109L69.8655 80.8075C70.7665 79.4384 70.3871 77.5977 69.0179 76.6964C67.6493 75.796 65.8081 76.1748 64.9068 77.544L59.9326 85.1028H44.1038L34.92 70.97L39.3704 63.2545C40.0105 64.2464 40.88 65.08 41.9316 65.6871L42.55 66.0439C43.7336 66.7276 45.0274 67.0518 46.3054 67.0518C48.9117 67.0518 51.4503 65.7001 52.8447 63.2857L54.0014 61.2817L60.8619 65.2439ZM90.6634 125.028L88.4386 111.121L98.0476 101.428C97.7825 110.108 95.105 118.19 90.6634 125.028ZM5.96925 101.227L15.6435 111.161L13.9309 125.884C9.11317 118.818 6.20794 110.349 5.96925 101.227ZM11.5989 77.8091L30.0337 74.3466L39.2315 88.5008L34.3378 103.561L22.3223 106.259L19.7235 106.843L6.44752 93.2095C7.25265 87.7185 9.02143 82.5199 11.5989 77.8091ZM59.3757 91.0388L63.8965 104.953L57.9786 109.253L52.0607 113.552L40.2248 104.953L44.7457 91.0388H59.3757ZM94.1621 87.1414L95.3187 85.1375L98.7078 87.0942L97.5512 89.0981C97.1101 89.862 96.1298 90.125 95.3653 89.6835L94.7472 89.327C93.9843 88.8855 93.7215 87.9053 94.1621 87.1414ZM47.7025 60.3178C47.2614 61.0814 46.2814 61.3444 45.5175 60.9038L44.8991 60.5467C44.8991 60.5464 44.8988 60.5464 44.8986 60.5464C44.5283 60.3326 44.2638 59.9877 44.1531 59.5753C44.0424 59.1629 44.0991 58.7316 44.3128 58.3614L45.4694 56.3578L47.5363 57.5509L48.8586 58.3142L47.7025 60.3178ZM36.3058 56.6858L29.5504 68.3973L16.2456 70.8961C21.4115 64.5429 28.283 59.572 36.3058 56.6858ZM19.1657 132.258L21.4596 112.537L35.3038 109.428L35.9792 109.276L48.9951 118.733V132.705L34.9366 142.781C28.9629 140.388 23.6037 136.777 19.1657 132.258ZM42.0616 144.978L52.1379 137.756L63.39 144.641C59.7495 145.569 55.9379 146.064 52.0126 146.064C48.5964 146.064 45.2673 145.687 42.0616 144.978ZM70.6472 142.122L55.0288 132.566V118.733L64.6111 111.772L68.0453 109.277L68.9811 109.487L82.6567 112.558L85.6723 131.409C81.4618 135.919 76.3588 139.584 70.6472 142.122ZM104.444 83.426L91.2868 75.8298C89.7446 72.1118 86.9266 68.9417 83.2522 66.8203L75.0442 62.0812C72.665 60.7076 69.935 60.2341 67.3575 60.7492C66.2207 60.9772 64.9356 60.7408 63.8303 60.1026L54.3989 54.6576C54.3986 54.6576 54.3986 54.6573 54.3983 54.6573L51.4672 52.9651L29.0083 39.9981C29.0074 39.9976 29.0068 39.997 29.0059 39.9967L20.4761 35.0718C20.4755 35.0715 20.4746 35.0712 20.474 35.0709L18.593 33.9849C14.9201 31.8641 13.2522 27.7663 14.6478 24.5817C15.9021 27.0024 17.8936 29.1536 20.5099 30.6641L65.7481 56.7823C68.1187 58.1509 70.8387 58.6217 73.4063 58.1093C74.5514 57.879 75.8478 58.1174 76.962 58.7607L85.1703 63.4997C87.9087 65.0809 90.0189 67.5815 90.96 70.3608C91.1913 71.0439 91.663 71.619 92.2873 71.9794L106.362 80.1054C108.691 81.45 111.268 82.1459 113.828 82.1459C114.013 82.1459 114.197 82.1396 114.381 82.1325C112.376 84.9077 108.059 85.5136 104.444 83.426ZM119.577 73.1939C118.724 74.6702 117.235 75.6867 115.383 76.057C113.39 76.4557 111.239 76.0676 109.329 74.9644L96.1722 67.368C94.6297 63.6502 91.812 60.4799 88.1376 58.3584L79.929 53.6194C77.5495 52.2458 74.8198 51.7731 72.2426 52.2876C71.1061 52.5159 69.8207 52.2793 68.7154 51.641L23.4772 25.5231C19.5834 23.2746 17.9411 18.803 19.8167 15.5549C21.2159 13.1315 24.2039 11.9013 27.4342 12.4154C31.8613 13.2286 36.8749 14.1732 42.0836 15.1796L46.0261 29.8937C46.3253 31.0108 47.2459 31.8525 48.3854 32.0502L59.08 33.9066C59.2492 33.9362 59.419 33.9502 59.5877 33.9502C60.4133 33.9502 61.2113 33.6052 61.7786 32.9845C62.462 32.2363 62.7167 31.1922 62.4546 30.214L59.3457 18.6118C60.8084 18.912 62.2533 19.2112 63.67 19.5075L67.4911 33.7691C67.7903 34.8862 68.7109 35.7279 69.8503 35.9256L80.545 37.782C80.7142 37.8117 80.884 37.8256 81.0527 37.8256C81.8783 37.8256 82.6763 37.4806 83.2436 36.8599C83.927 36.1117 84.1817 35.0676 83.9196 34.0894L81.0535 23.3927C85.0474 24.3825 87.8291 25.1986 88.7423 25.7259L90.0919 26.5049L88.6464 29.0084C85.8573 33.8392 87.5177 40.0397 92.3482 42.83L106.254 50.8629L102.003 52.0017C100.42 52.4262 99.4806 54.0537 99.9046 55.637C100.26 56.9631 101.459 57.838 102.77 57.838C103.024 57.838 103.283 57.805 103.54 57.7359L117.723 53.9356C118.546 53.8248 119.358 53.6452 120.149 53.3866L121.882 52.8208L125.212 51.9284C127.04 51.7479 129.007 52.1769 130.726 53.1693C130.879 53.2575 130.955 53.3611 130.99 53.4261L119.577 73.1939Z" fill="black"/>
<path d="M151.115 13.2324C150.563 12.6802 149.798 12.3625 149.017 12.3625C148.236 12.3625 147.47 12.6802 146.918 13.2324C146.366 13.7843 146.049 14.5499 146.049 15.3307C146.049 16.1145 146.366 16.8771 146.918 17.4293C147.47 17.9815 148.236 18.2989 149.017 18.2989C149.798 18.2989 150.563 17.9815 151.115 17.4293C151.668 16.8771 151.985 16.1118 151.985 15.3307C151.985 14.5502 151.667 13.7843 151.115 13.2324Z" fill="black"/>
</svg>
