<svg width="30" height="26" viewBox="0 0 30 26" fill="none" xmlns="http://www.w3.org/2000/svg">
<path d="M10.5262 5.35886C10.5598 4.80186 10.5444 4.23716 10.6355 3.69068C10.997 1.52435 12.9412 -0.0625623 15.1097 0.001895C17.3629 0.0691548 19.2195 1.70721 19.4479 3.92258C19.5719 5.12275 19.6469 6.34464 19.3134 7.53079C18.7333 9.59413 16.6279 10.9954 14.5618 10.7221C12.2623 10.4181 10.6012 8.61395 10.5605 6.37406C10.5542 6.03636 10.5262 5.69656 10.5262 5.35886C10.515 5.35816 10.5374 5.35956 10.5262 5.35886ZM17.7342 5.37497C17.7244 5.37427 17.7447 5.37567 17.7342 5.37497C17.7342 5.04918 17.7104 4.72129 17.702 4.3962C17.6669 3.00897 16.5578 1.86695 15.1832 1.79829C13.7554 1.72683 12.5019 2.74694 12.3807 4.15449C12.3121 4.9504 12.3156 5.76102 12.3758 6.55833C12.4739 7.86008 13.5536 8.86828 14.8343 8.93834C16.2103 9.01401 17.3769 8.15855 17.634 6.83297C17.7265 6.35795 17.7048 5.86121 17.7342 5.37497Z" fill="white"/>
<path d="M1.81183 19.7624C3.2404 19.7624 4.61783 19.7624 6.02748 19.7624C6.02748 20.3601 6.02748 20.9332 6.02748 21.5385C4.03421 21.5385 2.03603 21.5385 0.0350513 21.5385C0.0210388 21.4986 2.01099e-05 21.4677 2.01099e-05 21.4362C-0.00138114 19.6692 0.0693818 17.9121 0.547207 16.1935C1.12242 14.1245 2.47672 12.9636 4.59681 12.7401C5.56157 12.6385 6.53753 12.6511 7.61649 12.6077C7.37688 13.1219 7.16179 13.5276 6.99784 13.9522C6.86122 14.3074 6.68677 14.4524 6.26849 14.4384C5.7073 14.4188 5.13278 14.4916 4.57929 14.6016C3.54657 14.8069 2.85226 15.4494 2.44589 16.4142C2.0024 17.47 1.90151 18.5875 1.81183 19.7624Z" fill="white"/>
<path d="M22.4082 12.6531C23.6791 12.6181 24.8814 12.5754 26.0753 12.8388C27.6468 13.1863 28.7054 14.1153 29.2547 15.6133C29.9504 17.512 29.9854 19.4968 30.0002 21.5272C27.9747 21.5272 25.9772 21.5272 23.9566 21.5272C23.9566 20.9359 23.9566 20.3726 23.9566 19.7715C25.3473 19.7715 26.7338 19.7715 28.1855 19.7715C28.1386 19.2978 28.1239 18.8607 28.0461 18.4354C27.9361 17.8321 27.8247 17.2233 27.6349 16.6432C27.1942 15.2931 26.2028 14.6058 24.8155 14.4664C24.3657 14.4215 23.911 14.4299 23.4605 14.3956C23.354 14.3872 23.1992 14.3318 23.1586 14.2513C22.9035 13.7461 22.6744 13.2284 22.4082 12.6531Z" fill="white"/>
<path d="M23.0198 21.5336C23.0099 19.5074 22.9322 17.5281 22.2876 15.6182C21.6297 13.6691 20.2824 12.4682 18.2821 12.045C16.0976 11.5833 13.8962 11.5861 11.7124 12.0443C9.8011 12.4451 8.45661 13.5647 7.777 15.4199C7.05676 17.3838 6.9853 19.4345 6.97339 21.5329C7.95846 21.5329 8.94074 21.5329 9.92231 21.5329C9.99027 21.9154 10.0989 22.2839 10.2467 22.6328C10.639 23.5598 11.292 24.3459 12.1153 24.9022C12.9378 25.4585 13.9348 25.7842 15.0004 25.7835C15.7102 25.7835 16.3912 25.6392 17.0091 25.3779C17.936 24.9855 18.7221 24.3326 19.2784 23.5093C19.6729 22.9257 19.951 22.2545 20.0792 21.5329C21.058 21.5336 22.0382 21.5336 23.0198 21.5336ZM18.2044 21.9785C17.9409 22.6013 17.4988 23.1345 16.9433 23.5093C16.387 23.8842 15.7228 24.1027 14.999 24.1027C14.5163 24.1027 14.0609 24.0054 13.6454 23.8295C13.0226 23.5661 12.4894 23.124 12.1146 22.5684C11.7397 22.0121 11.5211 21.3479 11.5211 20.6242C11.5211 20.1414 11.6185 19.686 11.7944 19.2706C12.0578 18.6477 12.4999 18.1145 13.0555 17.7397C13.6118 17.3649 14.276 17.1463 14.999 17.1463C15.4818 17.1463 15.9372 17.2437 16.3526 17.4195C16.9755 17.6829 17.5087 18.125 17.8835 18.6806C18.2583 19.2369 18.4769 19.9011 18.4769 20.6249C18.4769 21.1076 18.3795 21.5623 18.2044 21.9785ZM17.8842 16.3469C17.0617 15.7906 16.0647 15.4648 14.999 15.4655C14.2893 15.4655 13.6083 15.6098 12.9903 15.8711C12.0634 16.2635 11.2773 16.9165 10.721 17.7397C10.3224 18.3296 10.0428 19.0092 9.916 19.74C9.54327 19.74 9.17124 19.74 8.79851 19.74C8.92743 18.2147 9.06895 16.7161 9.92511 15.4038C10.501 14.521 11.3495 14.011 12.3556 13.7833C14.0301 13.4042 15.72 13.407 17.4022 13.7293C19.1306 14.0607 20.2439 15.1082 20.6972 16.7946C20.9515 17.7411 21.0797 18.7213 21.2752 19.74C20.8759 19.74 20.4779 19.74 20.0806 19.74C20.0127 19.349 19.9027 18.9721 19.7521 18.6162C19.3604 17.6892 18.7074 16.9031 17.8842 16.3469Z" fill="white"/>
<path d="M15.364 17.6422C15.364 18.4493 15.364 19.2571 15.364 20.0859C15.8572 20.0859 16.3392 20.0859 16.8787 20.0859C16.0282 21.277 15.2077 22.4267 14.3509 23.6262C14.3509 22.756 14.3509 21.9461 14.3509 21.1117C13.8443 21.1117 13.3567 21.1117 12.8242 21.1117C13.6727 19.9234 14.4945 18.773 15.3163 17.6226C15.3324 17.6296 15.3479 17.6359 15.364 17.6422Z" fill="white"/>
<path d="M27.5653 5.29653C27.2843 4.63234 26.817 4.07044 26.2278 3.67179C25.6393 3.27384 24.9239 3.03983 24.1617 3.04053C23.6537 3.04053 23.1661 3.14422 22.7233 3.33129C22.0591 3.61224 21.4972 4.07955 21.0985 4.66878C20.7006 5.2573 20.4666 5.97264 20.4673 6.73491V7.72419C20.4673 8.23215 20.571 8.71978 20.758 9.16257C21.039 9.82676 21.5063 10.3887 22.0955 10.7873C22.6841 11.1853 23.3994 11.4193 24.1617 11.4186C24.6696 11.4186 25.1573 11.3149 25.6 11.1278C26.2642 10.8469 26.8261 10.3796 27.2248 9.79033C27.6227 9.20181 27.8568 8.48647 27.8561 7.72419V6.73491C27.8561 6.22696 27.7531 5.73933 27.5653 5.29653ZM26.2446 7.72489C26.2446 8.01495 26.1865 8.28679 26.0814 8.53552C25.9237 8.90825 25.6589 9.22773 25.3261 9.45263C24.9926 9.67753 24.5961 9.80785 24.1624 9.80785C23.8723 9.80785 23.6005 9.7497 23.3518 9.6446C22.979 9.48696 22.6595 9.22213 22.4346 8.88933C22.2097 8.55583 22.0794 8.15928 22.0794 7.72559V6.73491C22.0794 6.44486 22.1376 6.17301 22.2427 5.92429C22.4003 5.55156 22.6651 5.23208 22.9979 5.00718C23.3314 4.78228 23.728 4.65196 24.1617 4.65196C24.4517 4.65196 24.7236 4.71011 24.9723 4.81521C25.345 4.97285 25.6645 5.23768 25.8894 5.57048C26.1143 5.90398 26.2446 6.30053 26.2446 6.73421V7.72489Z" fill="white"/>
<path d="M9.51378 5.29653C9.23283 4.63234 8.76552 4.07044 8.1763 3.67179C7.58777 3.27384 6.87244 3.03983 6.11016 3.04053C5.60221 3.04053 5.11457 3.14422 4.67178 3.33129C4.00759 3.61224 3.44569 4.07955 3.04703 4.66878C2.64908 5.2573 2.41507 5.97264 2.41577 6.73491V7.72419C2.41577 8.23215 2.51947 8.71978 2.70653 9.16257C2.98748 9.82676 3.4548 10.3887 4.04402 10.7873C4.63254 11.1853 5.34788 11.4193 6.11016 11.4186C6.61811 11.4186 7.10574 11.3149 7.54854 11.1278C8.21273 10.8469 8.77463 10.3796 9.17328 9.79033C9.57124 9.20181 9.80524 8.48647 9.80454 7.72419V6.73491C9.80454 6.22696 9.70155 5.73933 9.51378 5.29653ZM8.19311 7.72489C8.19311 8.01495 8.13496 8.28679 8.02987 8.53552C7.87222 8.90825 7.60739 9.22773 7.27459 9.45263C6.9411 9.67753 6.54454 9.80785 6.11086 9.80785C5.8208 9.80785 5.54896 9.7497 5.30024 9.6446C4.92751 9.48696 4.60802 9.22213 4.38312 8.88933C4.15822 8.55583 4.02791 8.15928 4.02791 7.72559V6.73491C4.02791 6.44486 4.08606 6.17301 4.19115 5.92429C4.34879 5.55156 4.61363 5.23208 4.94642 5.00718C5.27992 4.78228 5.67647 4.65196 6.11016 4.65196C6.40022 4.65196 6.67206 4.71011 6.92078 4.81521C7.29351 4.97285 7.61299 5.23768 7.83789 5.57048C8.06279 5.90398 8.19311 6.30053 8.19311 6.73421V7.72489Z" fill="white"/>
</svg>
