<svg width="16" height="14" viewBox="0 0 16 14" fill="none" xmlns="http://www.w3.org/2000/svg">
<path d="M0.186626 5.92081L5.92077 0.186665C6.10298 0.00507754 6.37631 -0.05036 6.61524 0.0484134C6.85351 0.146534 7.00834 0.379732 7.00834 0.637134V3.18819C10.6744 3.33855 13.8727 5.8138 14.8972 9.36068C15.3407 10.8987 15.3063 12.1481 15.2935 12.619L15.291 12.7426C15.291 13.0293 15.0992 13.2809 14.8234 13.3568C14.7666 13.3721 14.71 13.3797 14.6539 13.3797C14.4334 13.3797 14.2232 13.2644 14.1066 13.0688C11.5829 8.82677 8.23929 8.70635 7.00834 8.82615V12.1055C7.00834 12.3629 6.85351 12.5961 6.61524 12.6942C6.37631 12.7936 6.10298 12.7381 5.92077 12.5559L0.186626 6.82178C-0.0624695 6.57259 -0.0624695 6.16991 0.186626 5.92081Z" fill="#4070F4"/>
</svg>
