<svg width="30" height="30" viewBox="0 0 30 30" fill="none" xmlns="http://www.w3.org/2000/svg">
<path d="M7.18641 13.9221L12.9206 8.18788C13.3219 7.78652 14.0082 8.07078 14.0082 8.63841V11.1898C17.6575 11.3415 20.8763 13.8263 21.8964 17.3625C22.237 18.5429 22.322 19.5144 22.2952 20.5599C22.2918 20.6827 22.291 20.7181 22.291 20.7439C22.291 21.3913 21.4374 21.626 21.1063 21.0697C20.3965 19.8771 19.5903 18.9555 18.7071 18.2743C17.1105 17.0429 15.4481 16.6863 14.0082 16.8303V20.1067C14.0082 20.6744 13.322 20.9586 12.9206 20.5573L7.18644 14.8231C6.9376 14.5743 6.9376 14.1709 7.18641 13.9221ZM12.734 18.5686V16.284C12.734 15.9921 12.9323 15.7375 13.2153 15.6662C13.2928 15.6466 13.4216 15.621 13.5963 15.5965C15.4011 15.344 17.4978 15.7324 19.4853 17.2653C19.9743 17.6424 20.4399 18.0806 20.8797 18.5825L20.87 18.5315C20.8192 18.2699 20.7541 17.9998 20.6721 17.7157C19.7627 14.5632 16.7886 12.3875 13.4951 12.4585C13.4394 12.4595 13.4189 12.4599 13.3931 12.4608C13.0328 12.4732 12.734 12.1845 12.734 11.824V10.1766L8.538 14.3726L12.734 18.5686Z" fill="#71788B"/>
</svg>
